<svg width="40" height="40" viewBox="0 0 40 40" fill="none" xmlns="http://www.w3.org/2000/svg">
<circle cx="20" cy="20" r="20" fill="#666666"/>
<path d="M13.9952 20.6543C13.9952 20.4346 14.0743 20.2324 14.2413 20.0742L21.211 13.2539C21.3604 13.1045 21.5538 13.0254 21.7823 13.0254C22.2393 13.0254 22.5909 13.3682 22.5909 13.8252C22.5909 14.0449 22.4942 14.2471 22.3536 14.3965L15.9552 20.6543L22.3536 26.9121C22.4942 27.0615 22.5909 27.2549 22.5909 27.4834C22.5909 27.9404 22.2393 28.2832 21.7823 28.2832C21.5538 28.2832 21.3604 28.2041 21.211 28.0459L14.2413 21.2344C14.0743 21.0674 13.9952 20.874 13.9952 20.6543Z" fill="black"/>
</svg>
