<svg width="20" height="20" viewBox="0 0 20 20" fill="none" xmlns="http://www.w3.org/2000/svg">
<rect width="20" height="20" fill="#293133"/>
<g clip-path="url(#clip0_1266_2352)">
<rect width="12" height="9" transform="translate(4 6)" fill="#293133"/>
<path d="M7.74218 13.1608C8.53125 12.3863 9.30589 11.6369 10.0692 10.8756C11.6022 9.34733 13.1301 7.81469 14.6568 6.28018C14.8784 6.05748 15.1301 5.94613 15.4396 6.02558C16.0115 6.17259 16.191 6.85508 15.7673 7.28922C15.1672 7.90415 14.5564 8.50907 13.9493 9.11775C12.1063 10.965 10.2632 12.813 8.41952 14.6596C7.96817 15.1119 7.58524 15.1125 7.12824 14.6646C6.17972 13.7344 5.23182 12.8042 4.28455 11.8727C3.93427 11.5287 3.90602 11.0614 4.21361 10.7517C4.52058 10.4427 4.98825 10.4665 5.33979 10.8105C6.09309 11.5487 6.84638 12.2875 7.59968 13.0256C7.64927 13.0744 7.70075 13.1207 7.7428 13.1601L7.74218 13.1608Z" fill="white"/>
</g>
<defs>
<clipPath id="clip0_1266_2352">
<rect width="12" height="9" fill="white" transform="translate(4 6)"/>
</clipPath>
</defs>
</svg>
