<svg width="40" height="40" viewBox="0 0 40 40" fill="none" xmlns="http://www.w3.org/2000/svg">
<circle cx="20" cy="20" r="20" fill="#666666"/>
<mask id="path-2-inside-1_1421_22696" fill="white">
<path d="M12.6681 27.4043C12.3604 27.1055 12.3692 26.5957 12.6681 26.2969L18.2931 20.6631L12.6681 15.0381C12.3692 14.7393 12.3692 14.2383 12.6681 13.9307C12.9669 13.6143 13.4854 13.623 13.7843 13.9307L19.4093 19.5557L25.0343 13.9307C25.3331 13.623 25.8429 13.623 26.1505 13.9307C26.4581 14.2295 26.4493 14.7393 26.1505 15.0381L20.5255 20.6631L26.1505 26.2969C26.4493 26.5957 26.4493 27.0967 26.1505 27.4043C25.8517 27.7119 25.3331 27.7031 25.0343 27.4043L19.4093 21.7793L13.7843 27.4043C13.4854 27.7031 12.9757 27.7031 12.6681 27.4043Z"/>
</mask>
<path d="M12.6681 27.4043C12.3604 27.1055 12.3692 26.5957 12.6681 26.2969L18.2931 20.6631L12.6681 15.0381C12.3692 14.7393 12.3692 14.2383 12.6681 13.9307C12.9669 13.6143 13.4854 13.623 13.7843 13.9307L19.4093 19.5557L25.0343 13.9307C25.3331 13.623 25.8429 13.623 26.1505 13.9307C26.4581 14.2295 26.4493 14.7393 26.1505 15.0381L20.5255 20.6631L26.1505 26.2969C26.4493 26.5957 26.4493 27.0967 26.1505 27.4043C25.8517 27.7119 25.3331 27.7031 25.0343 27.4043L19.4093 21.7793L13.7843 27.4043C13.4854 27.7031 12.9757 27.7031 12.6681 27.4043Z" fill="#293133"/>
<path d="M12.6681 26.2969L13.3752 27.004L13.3757 27.0034L12.6681 26.2969ZM18.2931 20.6631L19.0007 21.3696L19.7067 20.6625L19.0002 19.956L18.2931 20.6631ZM12.6681 13.9307L13.3854 14.6275L13.3951 14.6173L12.6681 13.9307ZM13.7843 13.9307L13.067 14.6274L13.072 14.6326L13.0772 14.6378L13.7843 13.9307ZM19.4093 19.5557L18.7022 20.2628L19.4093 20.9699L20.1164 20.2628L19.4093 19.5557ZM25.0343 13.9307L25.7414 14.6378L25.7465 14.6326L25.7516 14.6274L25.0343 13.9307ZM26.1505 13.9307L25.4434 14.6378L25.4485 14.6429L25.4537 14.6479L26.1505 13.9307ZM20.5255 20.6631L19.8184 19.956L19.1118 20.6625L19.8178 21.3696L20.5255 20.6631ZM26.1505 26.2969L25.4428 27.0034L25.4434 27.004L26.1505 26.2969ZM19.4093 21.7793L20.1164 21.0722L19.4093 20.3651L18.7022 21.0722L19.4093 21.7793ZM13.3648 26.687C13.4235 26.744 13.4409 26.8111 13.4406 26.856C13.4404 26.8987 13.4247 26.9545 13.3752 27.004L11.961 25.5898C11.2847 26.266 11.2463 27.4173 11.9713 28.1216L13.3648 26.687ZM13.3757 27.0034L19.0007 21.3696L17.5854 19.9565L11.9604 25.5903L13.3757 27.0034ZM19.0002 19.956L13.3752 14.331L11.961 15.7452L17.586 21.3702L19.0002 19.956ZM13.3752 14.331C13.427 14.3829 13.4439 14.4436 13.4439 14.4877C13.4439 14.5316 13.4276 14.584 13.3853 14.6274L11.9508 13.2339C11.2806 13.9238 11.266 15.0503 11.961 15.7452L13.3752 14.331ZM13.3951 14.6173C13.3376 14.6782 13.2681 14.6969 13.2208 14.6966C13.1758 14.6964 13.1174 14.6794 13.067 14.6274L14.5016 13.2339C13.8229 12.5353 12.647 12.4965 11.941 13.244L13.3951 14.6173ZM13.0772 14.6378L18.7022 20.2628L20.1164 18.8486L14.4914 13.2236L13.0772 14.6378ZM20.1164 20.2628L25.7414 14.6378L24.3272 13.2236L18.7022 18.8486L20.1164 20.2628ZM25.7516 14.6274C25.6988 14.6817 25.6356 14.7 25.5891 14.7C25.5428 14.7 25.4879 14.6823 25.4434 14.6378L26.8576 13.2236C26.1652 12.5312 25.0141 12.5162 24.317 13.2339L25.7516 14.6274ZM25.4537 14.6479C25.395 14.5909 25.3777 14.5238 25.3779 14.4789C25.3781 14.4363 25.3939 14.3805 25.4434 14.331L26.8576 15.7452C27.5338 15.069 27.5723 13.9177 26.8473 13.2134L25.4537 14.6479ZM25.4434 14.331L19.8184 19.956L21.2326 21.3702L26.8576 15.7452L25.4434 14.331ZM19.8178 21.3696L25.4428 27.0034L26.8581 25.5903L21.2331 19.9565L19.8178 21.3696ZM25.4434 27.004C25.3915 26.9521 25.3746 26.8913 25.3746 26.8473C25.3746 26.8034 25.391 26.751 25.4332 26.7075L26.8678 28.1011C27.538 27.4111 27.5525 26.2847 26.8576 25.5898L25.4434 27.004ZM25.4332 26.7075C25.4931 26.6459 25.5596 26.6315 25.5978 26.6317C25.6338 26.6319 25.6889 26.6448 25.7414 26.6972L24.3272 28.1114C25.0035 28.7877 26.1636 28.826 26.8678 28.1011L25.4332 26.7075ZM25.7414 26.6972L20.1164 21.0722L18.7022 22.4864L24.3272 28.1114L25.7414 26.6972ZM18.7022 21.0722L13.0772 26.6972L14.4914 28.1114L20.1164 22.4864L18.7022 21.0722ZM13.0772 26.6972C13.132 26.6424 13.1921 26.6284 13.2295 26.6284C13.2668 26.6284 13.3184 26.6419 13.3648 26.687L11.9713 28.1216C12.6612 28.7918 13.7965 28.8063 14.4914 28.1114L13.0772 26.6972Z" fill="#293133" mask="url(#path-2-inside-1_1421_22696)"/>
</svg>
