<svg width="102" height="116" viewBox="0 0 102 116" fill="none" xmlns="http://www.w3.org/2000/svg">
<path d="M95.1354 23.8617L57.8584 1.87947C55.7713 0.648202 53.4039 0 50.9939 0C48.5839 0 46.2164 0.648202 44.1293 1.87947L6.8646 23.8617C4.77659 25.0921 3.04271 26.8629 1.8376 28.9959C0.632489 31.1288 -0.00135263 33.5486 2.16728e-06 36.0115V79.9885C-0.00135263 82.4514 0.632489 84.8712 1.8376 87.0041C3.04271 89.1371 4.77659 90.9079 6.8646 92.1383L44.1293 114.121C46.2164 115.352 48.5839 116 50.9939 116C53.4039 116 55.7713 115.352 57.8584 114.121L68.4495 107.858L95.1354 92.1383C97.2217 90.906 98.9543 89.1347 100.159 87.0022C101.364 84.8697 101.999 82.4509 102 79.9885V36.0115C101.999 33.5491 101.364 31.1303 100.159 28.9978C98.9543 26.8653 97.2217 25.094 95.1354 23.8617Z" fill="white"/>
<path d="M91.7909 27.5486L57.5211 7.77105C55.6024 6.66327 53.4259 6.08008 51.2103 6.08008C48.9948 6.08008 46.8182 6.66327 44.8995 7.77105L10.6409 27.5486C8.72134 28.6556 7.12734 30.2488 6.01944 32.1678C4.91154 34.0869 4.32883 36.264 4.33008 38.4798V78.0463C4.32883 80.2622 4.91154 82.4392 6.01944 84.3583C7.12734 86.2773 8.72134 87.8705 10.6409 88.9775L44.8995 108.755C46.8182 109.863 48.9948 110.446 51.2103 110.446C53.4259 110.446 55.6024 109.863 57.5211 108.755L67.2578 103.12L91.7909 88.9775C93.709 87.8688 95.3018 86.2752 96.4095 84.3565C97.5171 82.4379 98.1007 80.2617 98.1018 78.0463V38.4798C98.1007 36.2644 97.5171 34.0882 96.4095 32.1696C95.3018 30.2509 93.709 28.6573 91.7909 27.5486Z" fill="#DFCDD7"/>
<path d="M70.7827 39.8856C71.5014 41.1506 72.2309 42.4155 72.9604 43.6805C73.2326 44.1779 73.4286 44.6969 73.679 45.1942C73.9908 45.8081 74.4687 46.3235 75.0592 46.6826C75.6497 47.0416 76.3293 47.2301 77.0217 47.2268C77.3351 47.2425 77.6463 47.1669 77.9171 47.0095C78.1879 46.852 78.4065 46.6194 78.5461 46.3403C79.7973 44.4127 80.6179 42.2412 80.9524 39.9721C81.1149 38.8654 81.3922 37.7785 81.7799 36.7285C82.1898 35.9571 82.6827 35.2321 83.2498 34.5661C83.6426 34.0384 84.0061 33.4898 84.3387 32.9227C84.6762 32.2956 84.4584 31.9172 83.7398 31.755C83.6092 31.2036 84.012 30.3603 82.9667 30.263C83.1845 29.7656 83.4785 29.1818 82.9667 28.8791C82.6836 28.6736 82.1827 28.7601 81.5839 28.6953C80.9197 27.9925 80.31 28.2628 79.7656 29.344C79.3514 29.9158 78.8605 30.4286 78.3065 30.8684C78.0887 30.2738 77.9037 29.8737 77.7948 29.4521C77.5335 28.5006 76.8475 27.7871 76.0962 27.7979C75.8983 27.7949 75.7069 27.8686 75.5627 28.0033C75.4974 28.0898 75.5627 28.3709 75.6825 28.5006C76.3403 29.4557 76.6897 30.5871 76.6842 31.7442C76.755 32.4955 76.9615 33.228 77.2939 33.9066C77.5634 34.4299 77.7184 35.0039 77.7484 35.5909C77.7784 36.1779 77.6829 36.7646 77.4681 37.3123C77.4152 37.5305 77.3346 37.7412 77.2286 37.9394C77.1875 37.808 77.1328 37.6812 77.0653 37.561L75.53 35.3986C74.7002 34.0383 74.1799 32.5143 74.0057 30.9333C73.6875 29.3942 73.0251 27.9458 72.0675 26.695C71.7905 26.3419 71.4326 26.0596 71.0235 25.8715C70.6144 25.6835 70.1661 25.5951 69.7157 25.6139C68.91 25.6139 68.0933 25.6787 67.2767 25.722C67.0698 25.722 66.8629 25.722 66.6669 25.722C66.6358 25.5513 66.6395 25.3762 66.6777 25.207C66.716 25.0378 66.7879 24.8779 66.8894 24.7368C66.9909 24.5957 67.1199 24.4762 67.2687 24.3855C67.4175 24.2947 67.5831 24.2344 67.7557 24.2083C68.2566 24.1543 68.7575 24.111 69.2583 24.1002C70.2056 24.1002 70.6194 23.711 70.4561 22.8028C70.3028 22.0587 70.4431 21.2846 70.848 20.6404C71.0114 20.3593 70.848 19.9052 70.848 19.5592C71.9369 19.0835 71.9369 18.478 71.3598 17.786C71.151 17.4907 70.9653 17.1799 70.8045 16.8562C70.9946 16.7334 71.1575 16.5735 71.2836 16.3863C71.4097 16.1991 71.4962 15.9885 71.5379 15.7672C71.5797 15.5458 71.5757 15.3184 71.5264 15.0986C71.477 14.8788 71.3833 14.6712 71.2509 14.4884C70.7718 13.6559 70.3581 12.7801 69.9443 11.9152C69.8572 11.7422 69.9443 11.4935 69.9443 11.2881C69.9721 10.8976 69.864 10.5094 69.638 10.1886C69.412 9.86782 69.082 9.63381 68.7031 9.52576C66.8095 8.85606 64.8299 8.45566 62.8234 8.33645C62.1818 8.31103 61.5444 8.44982 60.9724 8.73951C60.4003 9.02919 59.9129 9.46004 59.5569 9.99067C58.9664 10.9818 58.4846 12.033 58.1196 13.1261C57.7059 14.2722 58.2721 15.3426 58.5552 16.4346C58.958 18.0023 59.3391 19.5916 59.644 21.1918C59.7856 22.1432 59.154 22.7163 58.185 22.9758C57.2159 23.2352 56.1053 23.6245 55.06 23.938C54.8732 24.0031 54.6697 24.0031 54.483 23.938C53.6866 23.577 52.8214 23.3901 51.946 23.3901C51.0706 23.3901 50.2053 23.577 49.409 23.938C48.3012 24.3557 47.0969 24.4531 45.9356 24.2191C44.7883 24.1132 43.6321 24.1531 42.4949 24.3381C40.5496 24.5975 38.6041 24.9147 36.6588 25.2895C35.4627 25.5225 34.2869 25.8478 33.1419 26.2626C32.9467 26.3797 32.7789 26.5367 32.6494 26.7231C32.5198 26.9095 32.4316 27.121 32.3906 27.3438C32.1075 28.8466 31.9441 30.3711 31.7046 31.8739C31.3437 35.2454 31.2164 38.6375 31.3235 42.0263C31.2079 42.6766 31.1387 43.3341 31.1167 43.9941C31.2496 44.4979 31.2155 45.0308 31.0194 45.5138C30.8232 45.9968 30.4755 46.4042 30.0278 46.6754C29.7983 46.8856 29.6323 47.1552 29.5487 47.4539C29.208 48.4578 28.6248 49.3635 27.8502 50.092C27.7571 50.163 27.6801 50.2526 27.6241 50.355C27.5681 50.4575 27.5344 50.5704 27.5252 50.6866C27.516 50.8028 27.5313 50.9196 27.5705 51.0295C27.6096 51.1394 27.6714 51.2399 27.7521 51.3245C27.8215 51.3992 27.9057 51.4589 27.9994 51.4996C28.0931 51.5404 28.1943 51.5615 28.2966 51.5615C28.3989 51.5615 28.5001 51.5404 28.5938 51.4996C28.6875 51.4589 28.7716 51.3992 28.841 51.3245C28.9284 51.2727 29.0242 51.2362 29.1241 51.2164C29.1241 51.5624 29.0479 51.9733 29.2003 52.2003C29.3527 52.4274 29.7774 52.4922 30.1585 52.6544C30.3327 53.6491 30.6158 53.8437 31.2473 53.4977C31.6284 53.7897 31.9115 54.1681 32.249 54.2221C32.7825 54.3194 33.0874 53.8978 33.229 53.3896C33.6047 52.4708 34.1724 51.6416 34.8949 50.9569C35.1235 51.584 35.2978 52.0381 35.4829 52.6003C35.5734 52.9324 35.7616 53.2302 36.0234 53.4555C36.2853 53.6809 36.6089 53.8235 36.9528 53.8653C37.1705 53.8653 37.4101 53.7248 37.6496 53.6383C37.6092 53.4605 37.5432 53.2893 37.4537 53.1301C36.9186 52.4688 36.6131 51.6534 36.5826 50.8056C36.5293 49.5706 36.2099 48.3614 35.6462 47.2593C35.4842 46.9528 35.3808 46.6192 35.3413 46.2754C35.3319 44.2177 35.4264 42.1609 35.6244 40.1126C35.9232 38.5643 36.3344 37.0394 36.8548 35.55C37.225 34.285 37.6279 33.0308 37.9436 31.7658C38.0743 31.3334 38.3356 31.1279 38.7711 31.2252C40.5515 31.6647 42.3807 31.8791 44.2152 31.8631H48.9517C49.213 32.8038 49.5614 33.8741 49.8009 34.9661C49.9194 35.725 49.9885 36.4906 50.0078 37.2583C50.18 39.3181 50.7493 41.3259 51.6847 43.1724C52.3187 44.4221 52.7277 45.7723 52.8933 47.162C53.0367 48.4705 52.6833 49.7852 51.9024 50.8488C50.691 52.4855 49.6957 54.2696 48.9408 56.1575C47.8676 58.703 47.848 61.566 48.8864 64.1258C48.9428 64.2518 48.972 64.388 48.972 64.5259C48.972 64.6637 48.9428 64.8 48.8864 64.9259C48.1242 66.1585 47.2966 67.3586 46.5236 68.5803C45.4347 70.3427 44.346 72.1915 43.1809 73.889C42.4183 74.8175 41.5648 75.6686 40.633 76.4298C40.535 76.5163 40.2519 76.4838 40.0777 76.4298C38.4418 75.8777 36.7311 75.5752 35.0038 75.5324C33.7493 75.4802 32.5019 75.7443 31.378 76.3C30.3425 76.7803 29.2421 77.1081 28.1115 77.2731C26.0645 77.7056 24.0138 78.1164 21.9596 78.5057C21.2592 78.6659 20.5263 78.6099 19.8589 78.3452C19.1914 78.0805 18.6213 77.6197 18.2249 77.0244C18.0129 76.7742 17.7467 76.575 17.446 76.4417C17.1453 76.3084 16.8181 76.2446 16.489 76.255C16.1599 76.2654 15.8375 76.3498 15.546 76.5018C15.2545 76.6538 15.0015 76.8694 14.806 77.1325C14.264 77.9638 13.8011 78.8434 13.4232 79.7598C12.7844 81.2325 11.8551 82.5633 10.6902 83.6737C9.00589 85.3336 7.9682 87.5324 7.76125 89.8798C7.67669 90.1948 7.69919 90.5287 7.82518 90.8297C7.95117 91.1307 8.17363 91.3821 8.45811 91.5448C8.81663 91.627 9.19145 91.6044 9.53731 91.4797C9.88317 91.355 10.1852 91.1335 10.4071 90.842C10.7181 90.4786 10.9951 90.0877 11.2346 89.6743C11.671 88.8454 12.2886 88.1238 13.0422 87.5626C13.7958 87.0014 14.6663 86.6146 15.5899 86.4308C16.4068 86.2017 17.2041 85.9088 17.9745 85.555C18.1705 85.4793 18.4209 85.2955 18.4536 85.1117C18.6496 84.1927 19.4226 84.1278 20.0977 84.0305C21.5341 83.6761 22.9878 83.3946 24.453 83.1872C25.6196 83.0899 26.7924 83.0899 27.959 83.1872C29.1894 83.2521 30.4089 83.4575 31.6393 83.5116C33.6863 83.5981 35.7442 83.5116 37.7912 83.6737C39.2038 83.7272 40.5963 84.0235 41.9069 84.5495C42.3038 84.7812 42.7439 84.9304 43.2006 84.988C43.6574 85.0456 44.1211 85.0105 44.5637 84.8847C45.0289 84.6713 45.4704 84.4104 45.8812 84.1062C47.6233 82.9277 49.3436 81.7384 51.0858 80.5707C53.7001 78.8401 56.035 76.7257 58.0108 74.2998C58.7729 73.3484 59.5243 72.3861 60.2647 71.4455C61.593 72.0077 62.8996 72.6348 64.2606 73.1105C66.0137 73.7376 67.8211 74.1917 69.585 74.7972C70.3799 75.0458 71.1529 75.3486 71.9151 75.6513C72.6773 75.954 73.0039 76.3325 72.7644 77.2947C72.4269 78.9273 72.1329 80.5383 71.7953 82.2033C71.5445 83.7218 71.6946 85.279 72.2309 86.7227C73.1363 89.4015 73.8351 92.1448 74.3214 94.9289C74.5567 96.1881 74.7275 97.4583 74.8331 98.7347C74.8671 99.4642 74.7826 100.194 74.5827 100.897C74.4412 101.416 73.9839 101.849 73.8314 102.368C73.6044 103.093 73.4799 103.846 73.4613 104.606C73.4246 105.038 73.5515 105.468 73.8173 105.812C74.0832 106.156 74.4688 106.389 74.8985 106.465C77.2068 107.125 79.5042 107.838 81.8452 108.346C83.1584 108.59 84.4963 108.677 85.8304 108.606C87.0538 108.511 88.2713 108.352 89.4779 108.13C89.6186 108.106 89.757 108.07 89.8917 108.022C90.7627 107.752 91.1438 107.341 91.1003 106.725C91.0356 106.376 90.8583 106.057 90.595 105.817C90.3318 105.577 89.997 105.429 89.6413 105.395C87.4788 105.158 85.4454 104.254 83.8269 102.811C83.2606 102.349 82.7293 101.847 82.2372 101.308C82.034 100.957 81.8486 100.596 81.6819 100.227C81.5164 100.01 81.2827 99.8536 81.0177 99.7835C79.8301 97.7489 79.2557 95.4185 79.3627 93.0693C79.4389 90.5501 79.5369 88.0417 79.6567 85.5009C79.7547 83.3386 79.82 81.2627 80.0596 79.1544C80.2442 78.0408 80.5584 76.9523 80.9959 75.9108C81.2889 75.3725 81.4706 74.7815 81.5304 74.1725C81.5902 73.5636 81.527 72.9489 81.3444 72.3645C80.7936 70.7762 79.8324 69.3594 78.557 68.256C77.0326 67.1748 75.6716 65.7909 74.1254 64.7097C72.2635 63.4122 70.2927 62.277 68.3764 61.0769C67.9932 60.7901 67.5765 60.5504 67.1352 60.3633C66.9487 60.3164 66.7744 60.2308 66.6236 60.1121C66.4729 59.9935 66.3493 59.8444 66.2608 59.6749C66.1723 59.5053 66.121 59.319 66.1103 59.1283C66.0996 58.9376 66.1297 58.7468 66.1987 58.5685C66.6234 56.4926 66.9609 54.3951 67.5271 52.3517C68.3359 49.6118 68.9508 46.8191 69.3673 43.9941C69.6345 42.5942 69.9983 41.2143 70.4561 39.8639L70.7827 39.8856Z" fill="url(#paint0_linear_1379_38538)"/>
<defs>
<linearGradient id="paint0_linear_1379_38538" x1="22.0465" y1="39.1474" x2="90.7277" y2="104.502" gradientUnits="userSpaceOnUse">
<stop stop-color="#A57898"/>
<stop offset="1" stop-color="#5E3273"/>
</linearGradient>
</defs>
</svg>
