<svg width="126" height="140" viewBox="0 0 126 140" fill="none" xmlns="http://www.w3.org/2000/svg">
<path d="M117.52 28.7986L71.4722 2.26832C68.894 0.782313 65.9695 0 62.9925 0C60.0155 0 57.0908 0.782313 54.5127 2.26832L8.47981 28.7986C5.90049 30.2835 3.75864 32.4207 2.26998 34.995C0.78131 37.5692 -0.00167089 40.4897 2.67722e-06 43.4621V96.5379C-0.00167089 99.5103 0.78131 102.431 2.26998 105.005C3.75864 107.579 5.90049 109.716 8.47981 111.201L54.5127 137.732C57.0908 139.218 60.0155 140 62.9925 140C65.9695 140 68.894 139.218 71.4722 137.732L84.5552 130.173L117.52 111.201C120.097 109.714 122.238 107.576 123.726 105.003C125.214 102.429 125.999 99.5097 126 96.5379V43.4621C125.999 40.4903 125.214 37.5711 123.726 34.9973C122.238 32.4236 120.097 30.2859 117.52 28.7986Z" fill="white"/>
<path d="M111.785 33.2482L70.4245 9.37872C68.1088 8.04175 65.482 7.33789 62.808 7.33789C60.1341 7.33789 57.5073 8.04175 55.1916 9.37872L13.845 33.2482C11.5282 34.5842 9.60443 36.507 8.26732 38.8231C6.9302 41.1392 6.22701 43.7667 6.22852 46.4411V94.1936C6.22701 96.868 6.9302 99.4955 8.26732 101.812C9.60443 104.128 11.5282 106.05 13.845 107.386L55.1916 131.256C57.5073 132.593 60.1341 133.297 62.808 133.297C65.482 133.297 68.1088 132.593 70.4245 131.256L82.162 124.456L111.785 107.359C114.1 106.021 116.022 104.098 117.359 101.782C118.696 99.4667 119.4 96.8402 119.401 94.1664V46.4411C119.4 43.7673 118.696 41.1408 117.359 38.8252C116.022 36.5096 114.1 34.5863 111.785 33.2482Z" fill="#F3E3B9"/>
<path d="M114.766 92.1933C108.339 84.1658 101.729 81.2895 89.9042 83.1853L88.444 83.5121C88.444 83.5121 84.6501 74.5172 84.7674 74.3603C84.8848 74.2034 84.5198 73.1444 86.3451 74.3603C87.7593 75.27 89.2673 76.0239 90.8429 76.609L91.56 77.4458C91.56 77.4458 91.1689 78.3217 88.9525 78.5571C86.7362 78.7924 88.5223 81.6033 91.8729 79.7076C92.6058 79.3344 93.3193 78.9242 94.0108 78.4786C94.8817 78.5184 95.7545 78.479 96.6183 78.361C96.6758 78.1125 96.7021 77.8577 96.6966 77.6027C96.6966 77.6027 97.4006 77.7988 97.531 77.6027C97.6848 77.3095 97.7527 76.9785 97.7266 76.6483C97.6484 76.4914 98.5087 76.8052 98.6261 76.5306C98.7622 76.3429 98.8419 76.12 98.8557 75.8884C98.8696 75.6567 98.8171 75.4259 98.7044 75.2232C98.7044 75.2232 99.4214 75.2232 99.4996 74.9487C99.5524 74.3949 99.4598 73.8368 99.2311 73.33C99.0024 72.8231 98.6456 72.3851 98.1959 72.0593C98.1959 72.0593 97.8047 70.5166 97.6091 70.072C98.1713 69.8363 98.6811 69.4905 99.1086 69.0551C99.5361 68.6196 99.8729 68.1031 100.099 67.5357C100.453 66.5811 100.677 65.5827 100.764 64.5679C100.764 64.5679 100.608 63.7312 99.8517 63.6919C99.8434 63.5244 99.7969 63.361 99.7159 63.2143C99.6349 63.0676 99.5214 62.9414 99.3842 62.8455C99.2471 62.7496 99.0896 62.6864 98.9243 62.6609C98.759 62.6354 98.5901 62.6482 98.4305 62.6983C97.1268 63.0644 98.9911 65.7576 93.8544 65.8753C92.9762 65.6023 92.0528 65.5068 91.1374 65.5943C90.2221 65.6818 89.3331 65.9506 88.5222 66.3852C87.5729 66.7416 86.5626 66.906 85.5497 66.8689C85.5497 66.8689 80.3349 61.9923 77.5319 60.5672C77.4454 57.6836 76.7287 54.854 75.4327 52.2783L75.6414 52.043C75.5243 49.9976 75.2717 47.9623 74.8853 45.9505C74.8853 45.9505 76.0325 44.9961 76.6583 45.506C77.2841 46.0159 77.3362 47.5717 77.4536 47.6109C77.5709 47.6501 78.3271 47.807 78.5227 47.3364C78.6024 46.3558 78.5761 45.3696 78.4444 44.3947C78.4444 44.3947 80.2956 45.4276 80.6476 46.2251C80.6476 46.2251 81.5212 46.4996 81.8732 46.2251C82.2252 45.9505 82.2774 44.7216 82.2383 44.5908C82.1992 44.4601 82.8641 44.5908 83.0205 44.4732C83.1769 44.3555 83.2161 43.6887 83.2161 43.6887H84.1286C84.2274 43.3495 84.3058 43.0045 84.3634 42.6559C84.4416 42.146 85.5107 42.6559 85.5107 42.6559C85.5107 42.6559 86.1103 42.8128 86.2668 42.5382C86.2885 41.4887 86.2231 40.4391 86.0712 39.4004L86.7752 38.1715V37.4263C86.7752 37.4263 88.2355 38.3807 88.9525 37.5047C89.6696 36.6288 90.1388 32.7066 88.6395 30.2486C87.1402 27.7907 83.9722 25.019 77.4536 25.1759C76.5572 25.3115 75.6426 25.258 74.768 25.019C74.6002 25.3392 74.5292 25.7015 74.5639 26.0616C74.5987 26.4216 74.7375 26.7636 74.9634 27.0455L73.0731 26.9671C73.0731 26.9671 72.9036 27.8823 73.5424 28.1568C73.3504 28.1726 73.1643 28.2309 72.9975 28.3275C72.8306 28.424 72.6873 28.5564 72.5776 28.7152C72.4679 28.874 72.3947 29.0551 72.3631 29.2457C72.3316 29.4362 72.3424 29.6314 72.3951 29.8172C72.708 31.3207 73.8944 30.8893 74.09 31.1246C74.2856 31.3599 73.8553 32.432 73.8553 32.432C73.9836 32.668 74.1616 32.8732 74.3768 33.0334C74.6506 33.1903 72.7863 34.9291 72.7863 34.9291V35.7267C72.7863 35.7267 71.7172 34.9291 71.0914 35.0076C70.4656 35.086 70.0485 36.145 70.0485 36.145C70.0485 36.145 53.1913 27.7907 37.4553 43.218C37.4553 43.218 37.4552 43.8848 37.6507 44.0286C37.6507 44.0286 30.2457 52.4614 32.5272 60.2665L29.9197 60.4888C30.0951 61.139 30.4005 61.7467 30.8173 62.2749C31.2342 62.803 31.7539 63.2407 32.3446 63.5612C34.2872 64.5417 37.2466 62.2538 39.6324 66.346C42.0183 70.4381 44.9387 79.9821 44.9387 79.9821L40.5711 86.7806C40.5711 86.7806 31.0279 81.2895 21.5759 84.7019C12.1238 88.1142 7.89974 94.9911 6.56994 101.332C5.10977 108.313 7.87373 123.95 23.9096 127.702C39.9454 131.454 47.9373 118.694 49.8277 115.125C50.6882 116.268 51.839 117.159 53.1599 117.704C54.4808 118.249 55.9235 118.428 57.3371 118.224C62.1609 117.426 64.1426 111.804 63.0344 108.392C64.0856 107.624 65.299 107.11 66.5805 106.888C68.0146 106.888 69.3575 106.248 68.5622 105.581C68.5622 105.581 71.4825 105.973 72.0431 105.019C72.6037 104.064 73.777 102.169 70.2178 101.463C70.2178 101.463 68.0536 100.861 67.6104 99.5539L83.5029 81.6033L85.0413 84.9372C85.0413 84.9372 71.313 91.8664 73.047 107.163C74.7809 122.46 89.5261 132.775 105.862 126.107C122.198 119.439 121.194 100.221 114.766 92.1933ZM94.5845 70.5166C93.7645 70.7362 92.9166 70.8331 92.0683 70.8042C91.4181 70.5867 90.8406 70.193 90.3996 69.6668C92.5378 68.5816 94.5845 70.5166 94.5845 70.5166ZM58.2366 51.6769C58.2366 51.6769 62.2913 53.6772 63.3473 52.7359C64.3668 52.0632 65.5181 51.6173 66.7239 51.4285C66.7239 53.0628 71.4043 62.5153 71.4043 62.5153L72.5646 65.7446C72.5646 65.7446 80.3087 70.4381 80.739 72.0854C81.1692 73.7328 69.9702 73.8112 69.9702 73.8112C70.7379 72.2758 71.341 70.663 71.7693 69C71.9169 68.5143 71.9203 67.9961 71.779 67.5086C71.6378 67.021 71.3581 66.5852 70.9741 66.2544C67.8719 63.6028 64.5773 61.1862 61.1178 59.0245L60.7529 58.6454C59.6447 57.6387 53.0609 54.7232 53.0609 54.7232C53.0218 52.8928 58.2366 51.6769 58.2366 51.6769ZM44.6909 71.8632C44.6909 71.8632 48.9541 75.903 49.9058 76.4522C49.9058 76.4522 46.5422 77.2104 46.1511 76.4522C45.6035 74.9477 45.1336 73.4161 44.7431 71.8632H44.6909ZM43.9609 97.4229C43.0807 99.104 42.0967 100.728 41.0145 102.286C39.6375 103.118 38.5495 104.355 37.8985 105.829C36.1895 105.793 34.5016 105.443 32.9182 104.797C32.84 104.927 32.8401 104.797 32.8401 104.797H32.9182C33.0478 104.498 33.1484 104.187 33.2182 103.868C33.5832 102.496 32.0579 102.705 32.0579 102.705L38.9024 91.9318C40.6885 92.1933 44.2215 96.8999 44.0129 97.4229H43.9609ZM45.0038 114.027C44.2337 115.975 43.0483 117.731 41.5304 119.172C40.0126 120.613 38.199 121.704 36.2167 122.368C22.3581 127.441 15.0963 117.975 13.0886 114.524C10.3899 109.817 8.9297 95.2395 19.7767 90.4283C30.6237 85.617 37.1684 91.1604 37.1684 91.1604L28.7855 103.476C28.185 103.258 27.5297 103.243 26.9201 103.435C26.3106 103.626 25.7801 104.012 25.4103 104.534C25.0405 105.056 24.8517 105.686 24.8726 106.326C24.8935 106.966 25.1231 107.581 25.5262 108.078C26.9994 109.712 28.4726 109.019 30.2065 108.863C31.9405 108.706 44.2738 110.824 44.2738 110.824C45.3298 111.216 45.056 114.027 45.056 114.027H45.0038ZM46.2294 92.3763C45.0958 90.5917 43.5985 89.0679 41.8358 87.905C41.8358 87.905 45.2775 82.793 45.4731 82.7538C46.3256 84.457 47.0914 86.2025 47.7677 87.9834C47.7677 87.9834 47.0245 91.8664 46.2814 92.3763H46.2294ZM49.3453 84.9764C49.3453 84.9764 47.8068 81.6556 48.25 80.3482C48.6933 79.0408 51.9267 78.6486 51.9267 78.6486L53.2304 80.662C51.8169 81.9728 50.5332 83.4176 49.3973 84.9764H49.3453ZM54.4038 97.4098C53.6776 96.2905 53.2304 95.0126 53.1 93.6837L58.5104 85.4863C58.3688 86.353 55.3249 98.3335 54.4038 97.4098ZM60.5312 75.3016L56.9721 69.1961C56.9721 69.1961 64.4423 70.5035 63.2168 71.4187C62.1349 72.5613 61.2456 73.8728 60.5834 75.3016H60.5312ZM81.782 77.4589C81.782 77.4589 64.9247 96.3116 64.0382 96.7953C63.1516 97.279 62.4477 96.2593 62.4477 96.2593C62.4477 96.2593 60.9222 93.8406 64.351 87.1075C66.1871 83.6641 67.7017 80.0577 68.8751 76.3345C68.8751 76.3345 79.1484 75.8638 80.8954 75.9161C82.6424 75.9684 81.8341 77.4589 81.8341 77.4589H81.782ZM109.291 119.034C102.915 125.323 83.216 126.486 78.3661 111.909C73.5162 97.3313 86.371 89.683 86.371 89.683L94.1152 104.849C93.0592 106.065 95.5363 108.771 97.0617 106.967C99.0694 104.679 95.8491 103.267 95.8491 103.267C95.4319 102.103 89.7478 88.3626 89.7478 88.3626C94.8584 85.7478 106.696 87.3036 111.39 95.7102C116.083 104.117 115.601 112.85 109.343 119.034H109.291Z" fill="url(#paint0_linear_1379_38543)"/>
<defs>
<linearGradient id="paint0_linear_1379_38543" x1="30.7101" y1="56.301" x2="104.155" y2="119.545" gradientUnits="userSpaceOnUse">
<stop stop-color="#DDAE82"/>
<stop offset="1" stop-color="#9A6D38"/>
</linearGradient>
</defs>
</svg>
