<svg width="102" height="116" viewBox="0 0 102 116" fill="none" xmlns="http://www.w3.org/2000/svg">
<path d="M95.1354 24.156L57.8584 2.36326C55.7713 1.14261 53.4039 0.5 50.9939 0.5C48.5839 0.5 46.2164 1.14261 44.1293 2.36326L6.8646 24.156C4.77659 25.3758 3.04271 27.1313 1.8376 29.2459C0.632489 31.3605 -0.00135263 33.7594 2.16728e-06 36.201V79.799C-0.00135263 82.2406 0.632489 84.6395 1.8376 86.7541C3.04271 88.8687 4.77659 90.6242 6.8646 91.844L44.1293 113.637C46.2164 114.857 48.5839 115.5 50.9939 115.5C53.4039 115.5 55.7713 114.857 57.8584 113.637L68.4495 107.428L95.1354 91.844C97.2217 90.6223 98.9543 88.8663 100.159 86.7522C101.364 84.6381 101.999 82.2401 102 79.799V36.201C101.999 33.7599 101.364 31.3619 100.159 29.2478C98.9543 27.1337 97.2217 25.3777 95.1354 24.156Z" fill="white"/>
<path d="M90.9405 27.7074L57.4585 8.38452C55.5838 7.30221 53.4574 6.73242 51.2928 6.73242C49.1282 6.73242 47.0016 7.30221 45.127 8.38452L11.656 27.7074C9.78055 28.7889 8.22319 30.3455 7.14076 32.2205C6.05833 34.0954 5.48902 36.2224 5.49024 38.3874V77.0442C5.48902 79.2092 6.05833 81.3362 7.14076 83.2111C8.22319 85.086 9.78055 86.6426 11.656 87.7241L45.127 107.047C47.0016 108.129 49.1282 108.699 51.2928 108.699C53.4574 108.699 55.5838 108.129 57.4585 107.047L66.9713 101.542L90.9405 87.7241C92.8144 86.6409 94.3706 85.0839 95.4528 83.2094C96.535 81.3349 97.1052 79.2087 97.1063 77.0442V38.3874C97.1052 36.2229 96.535 34.0967 95.4528 32.2222C94.3706 30.3476 92.8144 28.7907 90.9405 27.7074Z" fill="#D9F4FE"/>
<path d="M43.7914 53.5645C42.6263 52.3876 41.0477 52.3948 39.561 52.155C39.1452 52.087 38.7743 52.2006 38.5917 52.7336C38.2485 53.7409 37.4743 54.4384 36.5508 54.8927C35.4042 55.4552 34.9823 56.4504 34.628 57.5538C34.4815 58.0144 34.1732 58.4224 33.9914 58.8772C33.7167 59.5614 33.299 60.2615 33.2833 60.9619C33.2512 62.4311 32.454 63.2836 31.3343 63.9866C30.9856 64.2206 30.6221 64.4321 30.2462 64.6197C29.6761 64.8801 29.3119 64.6933 29.2578 63.9127C28.186 65.0134 27.1919 66.0269 26.198 67.0519C26.0537 67.2047 25.8972 67.3458 25.7301 67.4735C25.0425 67.9737 24.7333 67.8563 24.4921 67.0076C24.4569 67.0229 24.4197 67.0352 24.385 67.0537L23.4646 67.5692C23.3896 67.1645 23.3047 66.7598 23.2441 66.3528C23.1854 65.9797 23.2042 65.5896 23.1045 65.236C22.847 64.3149 23.3524 63.5701 23.83 62.981C25.0508 61.4876 26.4029 60.0908 27.7572 58.7083C28.1879 58.2681 28.7757 57.9756 29.3112 57.6507C29.6023 57.4688 29.8509 57.2268 30.0402 56.9411C30.2295 56.6554 30.3551 56.3326 30.4084 55.9945C30.7958 54.0205 31.0918 52.0266 31.5652 50.0699C31.8821 48.7495 31.9231 47.3261 33.0028 46.234C33.9008 45.3266 34.9707 44.7746 36.1326 44.4033C37.4939 43.9697 38.8909 43.5973 40.3495 43.7309C40.8663 43.7862 41.3775 43.8849 41.8776 44.026C44.683 44.7776 47.5449 44.5996 50.4023 44.6012C52.0091 44.6074 53.4789 45.2175 54.8477 46.0485C55.2578 46.2981 55.6689 46.5442 56.2011 46.864C56.2215 45.9546 56.1697 45.1672 56.2715 44.4013C56.6264 41.7425 58.0978 39.8372 60.4769 38.6971C62.0209 37.9502 63.6804 37.543 65.4253 37.9602C67.503 38.4472 69.0415 39.6924 70.3072 41.3432C71.4821 42.8733 71.9271 44.645 72.0998 46.5132C72.1141 46.7746 72.1005 47.0368 72.0594 47.2955C71.9244 48.4328 71.7627 49.5661 71.6394 50.7047C71.5324 51.6976 71.0025 52.3276 70.106 52.7352C69.8832 52.8353 69.751 53.1375 69.5765 53.3472L69.7357 53.5288C70.5471 53.141 71.387 52.7991 72.165 52.3547C73.5785 51.5469 74.9535 50.6704 76.3437 49.8386C76.6672 49.6579 76.9488 49.4111 77.1699 49.1145C77.391 48.8179 77.5468 48.4781 77.6268 48.1175C78.0901 45.8679 79.3069 43.9636 80.4948 42.0736C81.6555 40.2286 83.0029 38.5006 84.2541 36.7113C85.1053 35.4957 85.091 34.0842 85.1027 32.693C85.1195 30.5754 85.0582 28.4701 85.1416 26.36C85.1557 26.0031 85.68 25.4619 86.0641 25.3593C87.4039 24.986 88.5453 24.5155 89.3104 23.2093C89.7053 22.5306 90.5265 22.0908 91.1764 21.569C92.3012 20.6699 93.63 19.9991 94.3072 18.6221C94.3829 18.4757 94.4869 18.3458 94.6132 18.2396C94.7396 18.1335 94.8857 18.0533 95.0432 18.0037C95.6852 17.8687 96.2114 18.0463 96.1604 18.8759C96.1301 19.3687 96.1171 19.8685 96.0806 20.364C96.0606 20.6421 96.0045 20.9193 95.9693 21.2047C97.1307 21.2141 97.2212 21.291 97.0261 22.3889C96.8559 23.4737 96.3847 24.4899 95.6657 25.3228C94.5231 26.6281 93.8894 28.2407 93.4707 29.9317C93.167 31.1183 93.0244 32.3934 92.1341 33.35C91.8013 33.7065 91.3292 33.9352 91.0088 34.2979C90.5002 34.8659 89.8831 35.4509 89.6385 36.1401C88.462 39.5787 87.4082 43.0501 86.2845 46.5032C85.6061 48.5897 84.8564 50.5865 83.1958 52.2238C81.6783 53.7215 80.559 55.6121 79.1522 57.2323C77.1736 59.5068 74.9915 61.5677 72.3668 63.1303C70.6794 64.1097 69.1396 65.3223 67.7934 66.7318C67.0578 67.5193 66.4575 68.4287 65.7346 69.2239C64.2991 70.7966 62.6636 72.1468 60.7205 73.046C59.29 73.7149 57.7693 74.1946 56.3568 74.8949C55.0679 75.5321 53.8339 76.2739 52.6671 77.1129C51.3906 78.0342 50.2717 79.1683 49.0083 80.1103C48.2012 80.7122 47.2602 81.1382 46.3726 81.634C45.3437 82.2073 44.3427 82.8445 43.2686 83.3175C41.8932 83.9208 40.4973 84.4981 39.0538 84.8762C37.589 85.2379 36.0965 85.4768 34.5919 85.5904C32.554 85.7723 30.5029 85.8701 28.4563 85.9038C27.1294 85.922 26.091 83.9816 26.5923 82.4728C26.8281 81.759 27.217 81.0943 27.5653 80.3481C26.6344 80.4326 25.7357 80.473 25.1333 81.3485C24.1931 82.705 22.6804 83.1835 21.2712 83.8003C20.5235 84.126 19.7634 84.4244 19.0136 84.7472C18.5709 84.915 18.1416 85.1163 17.7295 85.3492C17.115 85.7321 16.4038 86.0196 16.1654 86.8314C15.8506 87.9465 14.8849 88.4757 13.9354 88.8266C12.4454 89.3764 11.0954 89.9236 10.4054 91.5516C10.1598 92.1303 9.3544 92.4732 8.80816 92.9267C8.51043 93.1736 8.14573 93.3789 7.94741 93.6867C7.51213 94.3473 6.84682 94.4486 6.18917 94.4217C5.97543 94.413 5.58964 93.9124 5.60911 93.662C5.75077 91.8502 6.14114 89.9993 7.50871 88.7742C8.43834 87.9432 9.09173 86.7993 10.0991 86.1822C12.2729 84.8482 13.3984 82.7061 14.7686 80.7598C16.1389 78.8135 17.6406 77.0906 19.607 75.7469C20.0501 75.4478 20.3694 74.9324 20.641 74.457C22.192 71.7485 24.3944 69.5983 26.7132 67.5859C27.8763 66.5772 29.3013 65.9157 30.8241 65.6774C32.3161 65.4316 33.8334 65.076 35.2094 64.4758C36.4329 63.9452 37.5914 63.1156 38.2537 61.8825C38.5913 61.2552 38.6813 60.4976 38.8906 59.8025C39.4369 57.9662 40.6158 56.5283 41.9026 55.184C42.4851 54.5767 43.1843 54.078 43.7914 53.5645Z" fill="url(#paint0_linear_1379_38548)"/>
<defs>
<linearGradient id="paint0_linear_1379_38548" x1="57.143" y1="12.998" x2="45.9317" y2="99.5692" gradientUnits="userSpaceOnUse">
<stop stop-color="#476C89"/>
<stop offset="1" stop-color="#76A6CB"/>
</linearGradient>
</defs>
</svg>
