<svg width="102" height="116" viewBox="0 0 102 116" fill="none" xmlns="http://www.w3.org/2000/svg">
<g opacity="0.4">
<path d="M95.1354 23.8617L57.8584 1.87947C55.7713 0.648202 53.4039 0 50.9939 0C48.5839 0 46.2164 0.648202 44.1293 1.87947L6.8646 23.8617C4.77659 25.0921 3.04271 26.8629 1.8376 28.9959C0.632489 31.1288 -0.00135263 33.5486 2.16728e-06 36.0115V79.9885C-0.00135263 82.4514 0.632489 84.8712 1.8376 87.0041C3.04271 89.1371 4.77659 90.9079 6.8646 92.1383L44.1293 114.121C46.2164 115.352 48.5839 116 50.9939 116C53.4039 116 55.7713 115.352 57.8584 114.121L68.4495 107.858L95.1354 92.1383C97.2217 90.906 98.9543 89.1347 100.159 87.0022C101.364 84.8697 101.999 82.4509 102 79.9885V36.0115C101.999 33.5491 101.364 31.1303 100.159 28.9978C98.9543 26.8653 97.2217 25.094 95.1354 23.8617Z" fill="white"/>
<path d="M91.7412 27.3933L57.7532 7.68505C55.8503 6.58116 53.6917 6 51.4944 6C49.2971 6 47.1385 6.58116 45.2356 7.68505L11.2588 27.3933C9.35506 28.4964 7.77417 30.084 6.67539 31.9963C5.57661 33.9086 4.99877 36.078 5 38.2862V77.7138C4.99877 79.922 5.57661 82.0914 6.67539 84.0037C7.77417 85.916 9.35506 87.5036 11.2588 88.6067L45.2356 108.315C47.1385 109.419 49.2971 110 51.4944 110C53.6917 110 55.8503 109.419 57.7532 108.315L67.3986 102.7L91.7412 88.5843C93.6434 87.4795 95.2231 85.8914 96.3216 83.9795C97.4202 82.0676 97.999 79.899 98 77.6914V38.2862C97.999 36.0785 97.4202 33.9099 96.3216 31.998C95.2231 30.0861 93.6434 28.4981 91.7412 27.3933Z" fill="#F9EBEB"/>
<path fill-rule="evenodd" clip-rule="evenodd" d="M67.0711 11.7957C67.0388 11.7541 66.988 11.6968 66.9582 11.6683C66.9284 11.6399 66.898 11.6163 66.8905 11.6159C66.883 11.6154 66.8559 11.6675 66.8301 11.7315L66.7833 11.8478L66.6773 11.7315C66.619 11.6675 66.5629 11.6151 66.5526 11.6151C66.5423 11.6151 66.5211 11.6542 66.5055 11.7019C66.4899 11.7497 66.4641 11.8111 66.448 11.8385C66.4193 11.8875 66.417 11.8864 66.3127 11.7749C66.2543 11.7125 66.1962 11.6614 66.1835 11.6614C66.1709 11.6614 66.1546 11.6904 66.1473 11.7258C66.14 11.7613 66.1113 11.8306 66.0834 11.88L66.0327 11.9698L65.993 11.9024C65.9363 11.8064 65.8535 11.6992 65.8195 11.6781C65.7991 11.6654 65.7767 11.6893 65.7439 11.7591C65.6651 11.9262 65.6621 11.9273 65.5728 11.8239C65.5287 11.7727 65.4821 11.7309 65.4693 11.7309C65.4566 11.7309 65.4257 11.7661 65.4008 11.8093C65.3188 11.9512 65.2971 11.9577 65.224 11.8628C65.1337 11.7457 65.0667 11.7322 64.6917 11.7554C64.3256 11.778 64.2535 11.7865 63.8944 11.8486C62.8324 12.0325 61.837 12.3955 61.123 12.8591C60.202 13.4571 59.6046 14.1952 59.2697 15.1485C59.1168 15.5835 59.0468 15.994 59.0076 16.6847C58.9942 16.9204 58.9835 17.2695 58.9838 17.4605C58.9848 18.1224 59.0443 18.3666 59.4533 19.3899C59.8137 20.2917 59.9248 20.5884 60.0872 21.0835C60.4382 22.1536 60.6143 23.0974 60.614 23.9076C60.6139 24.0864 60.6384 24.3204 60.6641 24.5657C60.7119 25.0219 60.7637 25.5171 60.6694 25.7692L60.6136 25.9181L60.3186 25.7942C60.2753 25.7864 60.2232 25.7752 60.2027 25.7692C60.1737 25.7607 60.0146 26.0005 59.6449 26.8319C59.2096 27.5311 59.0856 27.9993 59.1012 28.0096C59.1145 28.0184 59.1551 28.0131 59.1923 28.0082C59.2299 28.0033 59.2641 27.9988 59.2641 28.0096C59.7683 28.0096 59.564 28.3019 59.2757 28.6424C58.7877 28.9845 58.0653 29.679 56.6898 31.061C56.0506 31.6237 55.5466 32.8369 55.077 34.4143C54.9867 34.7175 54.8634 35.2072 54.7544 35.6403C54.6639 35.9998 54.5832 36.3203 54.5394 36.4627C54.1799 37.6299 53.5582 40.3066 53.8759 42.5072C54.1428 44.3567 54.1581 45.2599 53.9641 47.7068C53.9515 47.8638 53.7536 48.3701 53.5242 48.8317C53.1268 49.6321 52.9266 49.9669 52.389 50.5071C51.8514 51.5874 50.7762 52.6677 50.2601 53.0984C50.0537 53.5937 49.8019 53.8252 49.2817 53.997C48.0841 54.3933 47.089 55.5053 46.1887 57.4533C45.739 58.4263 45.1539 59.6936 44.8882 60.2694C44.3743 61.3839 42.4526 63.3977 40.0456 65.3444C39.3376 65.9169 38.5571 66.701 38.3111 67.0868C37.8272 67.8455 35.0996 70.5529 34.0215 71.3446C32.8029 72.2394 30.0342 73.3371 28.4192 73.5657C27.256 73.7303 26.4484 74.0037 24.9737 74.7313C22.9442 75.7331 19.5802 78.0391 17.5024 79.8529C16.3098 80.8943 14.6982 82.1249 13.6948 82.7608C13.43 82.9285 12.8318 83.1141 12.3654 83.1729C9.04316 83.5926 7.84769 84.0291 7.34349 85.0065C7.00659 85.6592 6.95551 87.7728 7.25727 88.5707C7.36856 88.8653 7.63006 89.2888 7.8382 89.5115C8.29208 89.9973 8.83103 92.774 8.66562 93.7751C8.45236 95.0663 9.69568 96.2425 11.5925 96.544C12.6495 96.7119 15.3318 96.34 15.9391 95.9412C16.3191 95.6915 16.3799 95.5342 16.2832 95.0496C16.1636 94.4504 15.6791 93.7699 15.372 93.7699C14.9223 93.7699 14.2829 92.6939 14.2772 91.927C14.2721 91.2621 14.3619 91.0663 14.8226 90.7374C15.1261 90.5209 15.4377 90.3437 15.5152 90.3437C15.7915 90.3437 17.3096 88.9814 17.3096 88.7334C17.3096 88.3613 16.8438 88.2467 16.1463 88.4472C15.4166 88.6569 15.3329 88.6048 15.5086 88.0501C15.7606 87.2539 17.7411 85.5164 19.2402 84.7762C20.0354 84.3837 20.7367 84.0624 20.7986 84.0624C20.8607 84.0624 22.6861 83.2785 24.8552 82.3205C28.8672 80.5486 30.3728 80.0206 32.4073 79.6723C33.9311 79.4113 34.5675 79.2023 36.5852 78.3003C40.6119 76.5004 42.9475 75.2093 45.0033 73.647C45.5485 73.2324 46.0366 73.0224 46.4542 73.0224C47.1559 73.0224 50.5522 72.1788 51.1827 71.8478C51.4056 71.7308 51.9761 71.2326 52.4505 70.741C53.231 69.9318 53.5256 69.7798 55.5517 69.1402C57.6802 68.4683 57.8433 68.4445 58.8671 68.6565C59.929 68.8764 61.6205 69.6162 61.8272 69.9514C61.8855 70.046 62.3107 70.18 62.772 70.2495C63.434 70.3489 63.8616 70.2733 64.8011 69.8907C65.8443 69.4659 66.2689 69.4059 68.2364 69.4059C69.9049 69.4059 71.1277 69.2765 72.9987 68.9015C75.4959 68.4011 79.3818 68.1729 79.7153 68.5071C79.7966 68.5884 79.7609 69.1505 79.6361 69.7558C79.2793 71.4881 79.3541 74.5972 79.793 76.2583C80.3162 78.2388 80.6856 81.2304 80.9402 85.5488C81.143 88.986 81.1351 89.2485 80.8181 89.5995C80.3471 90.1212 79.7886 93.4728 79.9998 94.5087C80.187 95.4257 81.0224 96.2082 81.9541 96.3388C82.9933 96.4842 89.4809 96.8432 92.7978 96.9384C95.8928 97.0275 96.3706 96.8908 96.4669 95.8892C96.5284 95.2496 96.0982 94.5313 95.6539 94.5313C95.5336 94.5313 95.1491 94.3196 94.7993 94.061C94.4495 93.8023 93.743 93.4507 93.2295 93.2798C92.7162 93.1088 92.2521 92.854 92.1981 92.7133C92.1024 92.4632 89.4266 90.3864 88.9775 90.2137C88.6425 90.0849 88.3791 89.2567 88.2653 87.9757C88.1413 86.5772 87.685 85.8944 86.8171 85.809C86.1915 85.7473 86.1915 85.7473 86.3047 83.5249C86.367 82.3026 86.5448 80.4887 86.6997 79.4941C87.3154 75.5434 87.5984 72.1326 87.6335 68.241C87.678 63.326 87.6026 63.088 85.585 61.7802C84.904 61.339 84.347 60.9145 84.347 60.8372C84.347 60.7599 84.4752 60.5902 84.6318 60.4598C85.0519 60.1103 84.9786 59.272 84.4615 58.5082C84.2112 58.1383 83.947 57.5483 83.8745 57.1967C83.8019 56.8453 83.6274 56.2062 83.4867 55.7766C83.346 55.347 83.0011 53.8908 82.72 52.5407C82.4392 51.1906 82.0442 49.6578 81.8423 49.1343C81.4378 48.0855 79.773 44.757 79.1291 43.7096C78.9038 43.3431 78.52 42.5013 78.276 41.8385C77.741 40.3856 76.7824 38.8758 75.4025 37.314C74.8385 36.6754 73.8333 35.3706 73.169 34.4143C70.938 31.2026 70.4053 30.7557 67.6644 29.7958C67.5411 29.7527 67.372 29.7144 67.1677 29.6795C67.0887 29.5743 67.0049 29.4681 66.9158 29.3596C66.7512 29.1592 66.6618 29.0269 66.5952 28.885C66.4983 28.6784 66.4169 28.3819 66.4169 28.2355C66.4169 28.1153 66.492 27.8678 66.5611 27.7598C66.5929 27.7102 66.6715 27.5509 66.7358 27.4057C66.9785 26.8578 67.1442 26.6933 67.5828 26.5647C67.8217 26.4946 68.4325 26.4962 69.026 26.5685C69.822 26.6654 70.0024 26.6252 70.3103 26.2823C70.53 26.0376 70.5967 25.8951 70.6117 25.6384C70.6246 25.418 70.5762 25.1725 70.4526 24.8302C70.4123 24.7185 70.3793 24.5905 70.3793 24.5456C70.3793 24.4436 70.4571 24.3456 70.6066 24.2595C70.7107 24.1995 70.7151 24.193 70.7215 24.0876C70.7278 23.9825 70.6855 23.8468 70.6137 23.7417C70.5909 23.7083 70.6093 23.6809 70.7459 23.5449C70.9898 23.302 71.0114 23.2038 70.8878 22.901C70.8463 22.7992 70.8125 22.6899 70.8128 22.6579C70.8136 22.5545 70.9171 22.2778 70.9753 22.2236C71.0245 22.1778 71.0552 22.1714 71.2303 22.171C71.4598 22.1704 71.5695 22.1298 71.6631 22.011C71.7392 21.9142 71.751 21.8573 71.7384 21.6479C71.7289 21.4889 71.7147 21.4463 71.5637 21.1229C71.3258 20.6134 71.008 20.0624 70.4864 19.2548C70.3811 19.0917 70.3752 19.075 70.3866 18.9723C70.3932 18.9122 70.4131 18.8392 70.4307 18.81C70.4765 18.734 70.6348 18.1689 70.6581 17.9981C70.6924 17.7466 70.6742 16.794 70.6309 16.5719C70.5422 16.1171 70.3305 15.5044 70.129 15.1186C70.088 15.0401 70.0545 14.9664 70.0545 14.9547C70.0545 14.943 70.0943 14.8874 70.1429 14.8311C70.253 14.7038 70.4042 14.4584 70.4498 14.3333C70.5159 14.152 70.5558 13.8824 70.5402 13.7223C70.5118 13.4316 70.352 12.9672 70.1783 12.6711L70.1256 12.5811L70.1109 12.6479C70.1029 12.6847 70.0855 12.744 70.0723 12.7797C70.0486 12.8437 70.0467 12.8414 69.9519 12.635C69.8602 12.4355 69.8163 12.3799 69.8163 12.4632C69.8163 12.5164 69.7688 12.68 69.7533 12.6799C69.7463 12.6799 69.7227 12.6336 69.701 12.577C69.6597 12.4697 69.5162 12.2791 69.4469 12.2394C69.412 12.2194 69.4036 12.2288 69.383 12.3108L69.3592 12.4051L69.2176 12.2416C69.1398 12.1517 69.0683 12.0781 69.0589 12.0781C69.0494 12.0781 69.0348 12.1171 69.0265 12.1647C69.0038 12.2935 68.9955 12.2964 68.9293 12.1986C68.8959 12.1494 68.8309 12.0758 68.7849 12.0353C68.691 11.9524 68.6849 11.9572 68.6574 12.1357L68.6432 12.228L68.5979 12.1588C68.573 12.1208 68.5033 12.0377 68.4429 11.9742L68.3333 11.8586L68.3173 11.995C68.3086 12.07 68.298 12.135 68.2938 12.1394C68.2897 12.1439 68.2547 12.0954 68.216 12.0316C68.1479 11.9192 68.0275 11.8003 67.9818 11.8003C67.9695 11.8003 67.9483 11.8472 67.9348 11.9045C67.9213 11.9618 67.9031 12.0081 67.8944 12.0074C67.8856 12.0067 67.8492 11.9587 67.8135 11.9007C67.7777 11.8428 67.7172 11.7748 67.679 11.7498L67.6094 11.7043L67.5956 11.7697C67.588 11.8056 67.5723 11.8754 67.5607 11.9248L67.5397 12.0146L67.4678 11.9006C67.4036 11.7987 67.2475 11.6439 67.2301 11.6649C67.2264 11.6693 67.2023 11.7176 67.1766 11.7721L67.1298 11.8713L67.0711 11.7957ZM74.7815 46.0367C74.3774 45.542 73.614 44.5162 73.0849 43.7571C72.556 42.998 72.0512 42.3772 71.9635 42.3772C71.6769 42.3772 71.4107 43.3837 71.0973 45.652C70.9023 47.0636 70.8308 47.5808 70.9979 48.0025C71.0945 48.2463 71.2709 48.4582 71.5493 48.7927C71.9673 49.2946 72.7199 50.4763 73.2218 51.4185C73.7237 52.3607 74.2619 53.2768 74.4178 53.4542C74.574 53.6316 74.9754 54.3168 75.3102 54.9769C75.645 55.637 76.2558 56.6295 76.6673 57.1824C77.5171 58.3245 77.7737 58.353 79.074 57.4497C79.7719 56.9647 79.8053 56.8956 79.725 56.1036C79.6458 55.3251 79.0041 53.896 76.4009 48.7015C75.9143 47.7306 75.1856 46.5314 74.7815 46.0367ZM70.313 57.1288C69.8164 56.71 69.176 56.0463 68.89 55.6536C68.604 55.2611 68.2432 54.9398 68.0879 54.9398C67.3907 54.9398 66.899 57.9979 67.5557 58.2505C68.2322 58.5107 71.2644 58.3116 71.2297 58.0091C71.2221 57.9436 70.8096 57.5475 70.313 57.1288Z" fill="url(#paint0_linear_1379_38554)"/>
</g>
<defs>
<linearGradient id="paint0_linear_1379_38554" x1="31.788" y1="29.9807" x2="90.2132" y2="110.742" gradientUnits="userSpaceOnUse">
<stop stop-color="#BA7F77"/>
<stop offset="0.994792" stop-color="#68271E"/>
</linearGradient>
</defs>
</svg>
