<svg width="102" height="116" viewBox="0 0 102 116" fill="none" xmlns="http://www.w3.org/2000/svg">
<g opacity="0.3">
<path d="M95.1354 23.8617L57.8584 1.87947C55.7713 0.648202 53.4039 0 50.9939 0C48.5839 0 46.2164 0.648202 44.1293 1.87947L6.8646 23.8617C4.77659 25.0921 3.04271 26.8629 1.8376 28.9959C0.632489 31.1288 -0.00135263 33.5486 2.16728e-06 36.0115V79.9885C-0.00135263 82.4514 0.632489 84.8712 1.8376 87.0041C3.04271 89.1371 4.77659 90.9079 6.8646 92.1383L44.1293 114.121C46.2164 115.352 48.5839 116 50.9939 116C53.4039 116 55.7713 115.352 57.8584 114.121L68.4495 107.858L95.1354 92.1383C97.2217 90.906 98.9543 89.1347 100.159 87.0022C101.364 84.8697 101.999 82.4509 102 79.9885V36.0115C101.999 33.5491 101.364 31.1303 100.159 28.9978C98.9543 26.8653 97.2217 25.094 95.1354 23.8617Z" fill="white"/>
<path d="M91.4593 27.4701L57.19 7.69289C55.2714 6.58513 53.0949 6.00195 50.8794 6.00195C48.6639 6.00195 46.4874 6.58513 44.5687 7.69289L10.3107 27.4701C8.39118 28.577 6.79721 30.1702 5.68933 32.0892C4.58146 34.0082 3.99876 36.1853 4 38.4011V77.9668C3.99876 80.1827 4.58146 82.3597 5.68933 84.2787C6.79721 86.1977 8.39118 87.7909 10.3107 88.8979L44.5687 108.675C46.4874 109.783 48.6639 110.366 50.8794 110.366C53.0949 110.366 55.2714 109.783 57.19 108.675L66.9265 103.041L91.4593 88.8979C93.3773 87.7892 94.9701 86.1956 96.0777 84.277C97.1854 82.3584 97.769 80.1822 97.77 77.9668V38.4011C97.769 36.1857 97.1854 34.0096 96.0777 32.091C94.9701 30.1724 93.3773 28.5788 91.4593 27.4701Z" fill="#E3FFE9"/>
<mask id="mask0_1379_38557" style="mask-type:alpha" maskUnits="userSpaceOnUse" x="4" y="6" width="94" height="105">
<path d="M91.4593 27.4679L75.7219 6.00008C60.0851 6.00091 22.9257 6.00005 8.28278 6C6.36323 7.10693 6.79721 30.168 5.68933 32.087C4.58146 34.006 3.99876 36.183 4 38.3989V77.9646C3.99876 80.1804 4.58146 82.3575 5.68933 84.2765C6.79721 86.1955 8.39118 87.7887 10.3107 88.8956L44.5687 108.673C46.4874 109.781 48.6639 110.364 50.8794 110.364C53.0949 110.364 55.2714 109.781 57.19 108.673L66.9265 103.038L91.4593 88.8956C93.3773 87.7869 94.9701 86.1933 96.0777 84.2747C97.1854 82.3561 97.769 80.18 97.77 77.9646V38.3989C97.769 36.1835 97.1854 34.0073 96.0777 32.0887C94.9701 30.1701 93.3773 28.5766 91.4593 27.4679Z" fill="#BCF1C8"/>
</mask>
<g mask="url(#mask0_1379_38557)">
<path d="M67.5524 184.597C67.5524 184.493 67.5706 184.38 67.5385 184.286C67.0226 182.765 67.0138 181.191 67.0176 179.612C67.0218 177.93 67.0172 176.25 67.0037 174.571C66.9987 173.974 67.2812 173.522 67.6974 173.149C67.8235 173.039 68.0405 173.003 68.2202 172.989C69.139 172.917 70.0597 172.863 71.0221 172.8C71.2743 172.296 71.2384 171.728 71.169 171.172C71.0517 170.238 70.9798 169.291 70.6014 168.406C70.5226 168.222 70.5182 167.996 70.5207 167.79C70.5466 165.772 70.5876 163.76 70.6109 161.745C70.6254 160.526 70.6027 159.308 70.6222 158.087C70.6513 156.285 70.0938 154.612 69.5067 152.947C69.3641 152.544 69.2387 152.156 69.2891 151.724C69.3105 151.578 69.3015 151.43 69.2626 151.287C68.7972 149.829 68.8382 148.306 68.6881 146.81C68.5122 145.056 68.3823 143.296 68.1678 141.546C68.1003 141.036 68.0615 140.522 68.0518 140.007C68.0518 139.654 67.9887 139.301 67.961 138.947C67.9407 138.8 67.9374 138.652 67.9509 138.505C68.1924 136.951 68.0613 135.401 67.8879 133.856C67.775 132.855 67.5915 131.864 67.4464 130.868C67.4161 130.66 67.4086 130.45 67.3979 130.237C67.3909 130.111 67.4401 129.965 67.3922 129.863C67.0869 129.21 67.3827 128.688 67.6053 128.072C68.002 126.97 68.0197 125.815 67.1639 124.83C66.9987 124.641 66.8568 124.43 66.7105 124.225C66.2955 123.644 66.1278 123.018 66.1429 122.282C66.17 120.918 66.0931 119.552 66.0307 118.189C66.0187 118.089 65.9868 117.992 65.9369 117.904C65.887 117.816 65.82 117.74 65.7399 117.678C65.4372 117.467 65.3616 117.202 65.3742 116.866C65.3937 116.242 65.3635 115.63 65.569 115.008C65.7286 114.526 65.6952 113.976 65.7166 113.454C65.7576 112.411 65.8919 111.366 65.6807 110.324C65.6586 110.217 65.7223 110.087 65.7601 109.973C65.8522 109.694 65.9758 109.425 66.0452 109.141C66.3365 107.939 66.6127 106.734 66.8915 105.529C66.9285 105.365 66.944 105.197 66.9375 105.029C66.8561 103.131 67.437 101.39 68.1723 99.6782C68.5942 98.6963 68.9637 97.693 69.3528 96.6978C69.4064 96.5616 69.4682 96.4166 69.4701 96.2753C69.4783 95.6743 69.8113 95.2606 70.2218 94.8804C70.4917 94.6281 70.7995 94.4017 71.0044 94.1041C71.3349 93.6254 71.6035 93.1033 71.881 92.5906C72.2594 91.8887 72.6245 91.1786 72.9966 90.4729C73.1258 90.2276 73.2444 90.0006 73.0546 89.7124C72.9789 89.5976 72.9808 89.3838 73.0294 89.2432C73.3932 88.1932 73.7634 87.1445 74.1676 86.1096C74.2395 85.9248 74.4577 85.764 74.6469 85.6682C74.8657 85.5566 75.0297 85.4386 75.1161 85.2002C75.5481 84.014 75.9359 82.8171 76.0728 81.554C76.1289 81.0268 75.9971 80.6402 75.5525 80.2429C74.8273 79.5946 74.4123 78.6934 74.1153 77.7639C74.063 77.6006 74.1298 77.3937 74.1588 77.2096C74.3606 75.925 74.5914 74.6442 74.7667 73.3558C75.0694 71.131 75.3204 68.8992 75.6332 66.6756C75.7196 66.0582 75.9485 65.4604 76.1119 64.855C76.1787 64.6115 76.238 64.3656 76.3231 64.1291C76.7873 62.8451 76.4082 61.6659 75.9037 60.491C74.4747 57.1619 72.0658 54.5524 69.6605 51.9397C67.9095 50.039 66.1648 48.132 64.4263 46.2187C63.6809 45.3932 62.9822 44.5248 62.2582 43.6804C61.9984 43.3777 61.726 43.0863 61.4031 42.7275C61.4321 42.6581 61.4939 42.486 61.5734 42.3226C61.8256 41.8137 62.0552 41.2941 62.339 40.8041C62.677 40.2208 62.7073 39.6135 62.5912 38.9753C62.5282 38.624 62.4418 38.2759 62.402 37.9221C62.3131 37.1761 61.9278 36.5486 61.598 35.9041C61.3142 35.3517 60.8866 35.2338 60.2793 35.4286C59.8801 35.5547 59.4721 35.6588 59.0774 35.7969C58.9069 35.8648 58.7483 35.9593 58.6075 36.0769C58.3799 36.2535 58.1661 36.4509 57.8615 36.717C57.8104 36.333 57.7442 36.0536 57.7417 35.7711C57.7341 35.0364 57.7373 34.3011 57.7726 33.5676C57.7858 33.3078 57.7675 33.1174 57.5166 32.9944C57.2656 32.8714 57.241 32.6501 57.2473 32.4054C57.2555 32.0958 57.2473 31.7861 57.2473 31.4084C56.4767 31.3163 55.7735 31.2331 55.0704 31.1479C54.6323 31.095 54.1946 31.0407 53.7574 30.9852C53.2119 30.9171 52.8026 30.6504 52.6223 30.1219C52.4375 29.6109 52.2883 29.0877 52.1758 28.556C52.09 28.1058 52.1127 27.636 52.0736 27.1756C52.0143 26.4681 51.9475 25.7624 51.8775 25.0397C52.5081 24.6947 52.5283 24.6518 52.2426 23.9733L53.2081 22.7751C55.1675 24.37 57.2479 24.0837 57.6925 22.1483C57.3387 21.9685 56.9818 21.9893 56.6204 22.1438C56.4666 22.2101 56.3203 22.2946 56.1708 22.3709C55.9078 22.5046 55.6549 22.567 55.4418 22.2832C55.2526 22.0272 55.2822 21.8279 55.6203 21.5264C55.8577 21.3202 56.1107 21.1326 56.377 20.9652C56.9236 20.6146 57.4779 20.273 58.04 19.9404C59.0189 19.3599 59.868 18.5844 60.5347 17.662C62.0772 15.5487 63.4438 13.3365 64.3185 10.8581C64.5607 10.1714 64.6748 9.43733 64.8129 8.71842C64.8634 8.45671 64.8356 8.17292 64.8041 7.90364C64.678 6.83157 64.0473 6.18329 62.9828 6.05023C61.726 5.89257 60.5082 6.1196 59.3321 6.54149C59.0603 6.63861 58.8453 6.91987 58.629 7.13869C58.4852 7.285 58.3862 7.47482 58.3231 7.56437C54.6976 7.51329 51.151 7.44203 47.6025 7.42248C46.0492 7.41365 44.4928 7.46662 42.9447 7.58329C42.3876 7.62975 41.8269 7.56545 41.2949 7.3941C40.3956 7.10969 39.4812 6.87194 38.5675 6.63735C38.2808 6.572 37.9874 6.54026 37.6934 6.54275C36.3256 6.52068 35.4307 7.31463 35.4232 8.67868C35.429 9.39098 35.5386 10.0986 35.7486 10.7793C36.3546 12.8213 37.4714 14.6003 38.756 16.2765C40.0406 17.9527 41.5257 19.4296 43.4138 20.4538C43.9429 20.7413 44.4071 21.1531 44.88 21.5334C44.9917 21.6229 45.1115 21.8916 45.0692 21.9471C45.0117 22.0136 44.9411 22.0676 44.8618 22.1055C44.7824 22.1435 44.6961 22.1647 44.6082 22.1678C44.2765 22.1483 43.9486 22.0581 43.6219 21.9837C43.3401 21.9206 43.0619 21.8355 42.7681 21.7566C42.5259 22.1117 42.6533 22.3917 42.8545 22.6427C43.4939 23.4366 45.2225 23.6416 46.0076 22.9983C46.2517 22.7972 46.4219 22.5058 46.666 22.2075L48.1644 23.8825C48.0578 24.2899 48.0943 24.6878 48.5036 24.8423C48.5036 25.8702 48.5219 26.8332 48.4967 27.7955C48.4819 28.3201 48.4269 28.8427 48.3321 29.3588C48.1631 30.2852 47.5943 30.866 46.6597 31.0054C45.8512 31.1252 45.0327 31.1757 44.2173 31.2451C43.9713 31.2659 43.7216 31.2482 43.4548 31.2482C43.3218 31.6348 43.2127 31.9715 43.0891 32.3026C43.0203 32.4855 42.9175 32.6507 42.6773 32.6091C42.437 32.5675 42.4029 32.3764 42.401 32.1796C42.3973 31.8227 42.3865 31.4651 42.4074 31.1076C42.4351 30.627 42.1999 30.3338 41.72 30.0815C41.5308 30.5709 41.3845 31.0439 41.1675 31.4815C40.7261 32.3751 40.827 33.3646 40.6378 34.3017C40.5829 34.5729 40.6757 34.8876 40.752 35.1682C40.9853 36.0303 41.025 36.8469 40.4896 37.6409C40.3288 37.8799 40.2929 38.2438 40.3004 38.5483C40.3276 39.5693 40.1409 40.5537 39.8899 41.5331C39.8387 41.7152 39.8045 41.9016 39.7877 42.0899C39.7518 42.5995 39.5582 43.0157 39.1571 43.343C39.0067 43.4585 38.8882 43.6105 38.8128 43.7844C38.4748 44.6623 37.8883 45.3806 37.3346 46.1178C36.4774 47.2592 35.6079 48.3914 34.7263 49.5143C33.9733 50.471 33.1497 51.3759 32.4378 52.3603C31.618 53.4955 30.9369 54.7429 30.0874 55.8591C29.1156 57.1361 28.4182 58.5745 27.5233 59.8951C27.2168 60.3466 26.9513 60.8252 26.66 61.2869C26.0098 62.3167 25.6106 63.4266 25.5602 64.6525C25.5516 64.8415 25.5263 65.0293 25.4845 65.2138C25.3859 65.6667 25.4061 66.1375 25.5431 66.5803C25.9417 67.9507 26.38 69.3148 26.6833 70.7072C26.8542 71.4929 26.8208 72.331 26.8126 73.1445C26.8126 73.3836 26.6234 73.6572 26.4481 73.8509C25.7001 74.6826 25.3508 75.6683 25.2366 76.8394C26.2072 77.3874 26.4304 78.4387 26.793 79.4218C27.0894 80.2265 27.4609 81.0034 27.79 81.7961C27.865 81.9687 27.917 82.1504 27.9445 82.3366C28.0997 83.5802 28.543 84.7386 29.0362 85.8719C29.2884 86.4546 29.6964 86.9692 30.0073 87.5292C30.0912 87.6805 30.0836 87.8842 30.1095 88.0652C30.153 88.3704 30.1625 88.6838 30.2356 88.9821C30.3832 89.5938 30.6045 90.1898 30.7218 90.8065C30.9905 92.2248 31.5644 93.5264 32.1414 94.8331C32.3393 95.2933 32.4873 95.7735 32.5828 96.2652C32.8281 97.4786 33.0243 98.7013 33.2601 99.9172C33.3919 100.597 33.5754 101.26 33.9305 101.872C34.061 102.099 34.1089 102.385 34.1474 102.652C34.4551 104.774 34.6696 106.904 34.715 109.05C34.7326 109.821 34.6803 110.603 35.0151 111.344C35.082 111.491 34.9792 111.757 34.8833 111.929C34.655 112.339 34.6431 112.756 34.6942 113.208C34.855 114.669 34.9824 116.134 35.1425 117.595C35.1956 118.074 35.2824 118.548 35.4023 119.015C35.4856 119.339 35.478 119.632 35.3393 119.931C35.2264 120.179 35.1223 120.435 35.0133 120.682C34.8241 121.116 34.6979 121.54 34.9741 122.002C35.0605 122.144 35.0303 122.365 35.0259 122.55C35.0189 122.82 34.9666 123.09 34.971 123.359C34.9761 123.714 34.797 123.976 34.5447 124.164C34.0068 124.565 33.822 125.138 33.5817 125.729C33.2607 126.518 33.2197 127.243 33.501 128.037C33.607 128.336 33.5906 128.704 33.5439 129.028C33.0243 132.623 32.497 136.217 31.7151 139.767C31.495 140.765 31.4817 141.809 31.3764 142.832C31.2932 143.647 31.2068 144.461 31.1355 145.277C31.0617 146.133 31.0006 146.98 31.0611 147.852C31.1872 149.634 30.7969 151.363 30.2848 153.058C30.0546 153.819 29.68 154.537 29.465 155.301C29.1692 156.348 28.9416 157.417 28.7272 158.485C28.6345 158.946 28.5827 159.411 28.6918 159.909C28.7814 160.317 28.6218 160.778 28.5809 161.216C28.3734 163.433 28.1936 165.654 27.6936 167.83C27.5044 168.644 27.2313 169.437 27.0037 170.241C26.9639 170.38 26.9652 170.53 26.9406 170.674C26.8523 171.168 26.7596 171.661 26.6555 172.224C26.8775 172.494 27.2616 172.46 27.6349 172.476C28.4516 172.512 29.2682 172.553 30.0843 172.606C30.2873 172.62 30.4872 172.685 30.7584 172.741C30.6052 173.057 30.479 173.316 30.3548 173.575C29.9619 174.395 29.6189 175.22 29.6775 176.161C29.6914 176.376 29.5867 176.612 29.4927 176.819C29.2927 177.261 29.206 177.745 29.2405 178.228C29.3389 179.948 29.4297 181.669 29.5211 183.389C29.5432 183.787 29.5684 184.185 29.5918 184.582H39.1741C39.1949 184.249 39.1836 183.91 39.2429 183.583C39.5878 181.676 40.1302 179.83 40.9348 178.059C41.2968 177.262 41.6468 176.451 41.7622 175.543C41.8458 175.491 41.9343 175.447 42.0265 175.412C42.3683 175.311 42.7132 175.223 43.0575 175.128C43.4693 175.017 43.8376 174.955 44.2242 175.296C44.5515 175.585 45.155 175.425 45.3379 175.107C45.6749 174.526 45.8555 173.868 45.8619 173.197C45.8714 172.393 45.9824 171.607 46.3034 170.863C46.4295 170.566 46.4926 170.256 46.3494 169.948C46.1318 169.485 46.2012 169.017 46.2536 168.531C46.3093 167.927 46.3303 167.32 46.3166 166.714C46.3166 166.32 46.2012 165.922 46.2302 165.534C46.2775 164.888 46.4194 164.251 46.4825 163.606C46.5802 162.62 46.7297 161.651 47.0734 160.715C47.4417 159.711 47.8617 158.718 48.1208 157.688C48.5244 156.081 48.824 154.448 49.1437 152.821C49.3499 151.772 49.4534 150.699 49.8816 149.704C50.002 149.425 50.1622 149.162 50.3533 148.8C50.6654 149.522 50.7947 150.145 50.5992 150.791C50.4397 151.327 50.4989 151.832 50.7253 152.324C51.6082 154.26 51.7343 156.341 51.8182 158.412C51.9387 161.412 51.9544 164.416 52.0377 167.418C52.1007 169.698 52.6109 171.906 53.2056 174.095C53.2447 174.239 53.3733 174.44 53.4919 174.465C53.8753 174.546 54.2808 174.625 54.6636 174.581C55.3573 174.5 55.5168 174.544 55.7167 175.203C55.9419 175.946 56.1456 176.695 56.3474 177.445C56.6087 178.418 56.7891 179.411 56.8866 180.413C57.0228 181.81 57.2649 183.197 57.4648 184.588L67.5524 184.597ZM35.9579 70.6132C35.2144 70.4972 34.9779 70.342 34.9243 69.654C34.8707 68.966 34.6235 68.4035 34.271 67.8485C34.1669 67.6665 34.0769 67.4768 34.0017 67.281C33.7772 66.7658 33.7854 66.277 34.1026 65.7851C34.9161 64.5239 35.4831 63.1497 36.0078 61.7491C36.6712 59.9802 37.3421 58.2138 38.0472 56.4619C39.1756 53.6573 40.3225 50.8615 41.4879 48.0746C41.9356 47.0069 42.7208 46.1682 43.6371 45.489C44.3055 44.9915 45.056 44.6062 45.529 43.8771C45.6065 43.7573 45.8014 43.688 45.9559 43.6482C46.3198 43.5486 46.6963 43.4943 47.0589 43.3922C47.3209 43.3235 47.5733 43.222 47.8099 43.0901C48.2028 42.8587 48.5667 42.5749 48.9552 42.339C49.1143 42.2406 49.296 42.1846 49.483 42.1763C50.6383 42.1656 51.7942 42.1732 52.9514 42.1833C53.1046 42.1921 53.257 42.2119 53.4074 42.2425C53.4074 42.6588 53.2983 43.0542 53.4276 43.3417C53.8261 44.2246 54.4675 44.9095 55.4267 45.2298C55.5616 45.2746 55.7306 45.315 55.8088 45.4159C56.1727 45.8838 56.6854 46.1297 57.1886 46.387C57.5739 46.5832 57.8993 46.8329 58.1131 47.2125C58.7406 48.3275 59.4292 49.4128 59.9791 50.5643C61.1956 53.1133 62.6757 55.499 64.2561 57.8298C65.4463 59.5846 66.6352 61.3403 67.8229 63.0968C67.9621 63.2943 68.0607 63.5176 68.1129 63.7536C68.1651 63.9896 68.1698 64.2337 68.1269 64.4715C68.0152 65.1652 67.8223 65.8198 67.4672 66.4265C66.9478 67.3148 66.5359 68.2617 66.24 69.2473C66.0414 69.9056 65.7557 70.5375 65.5167 71.1631L64.4982 71.2684C64.3469 71.6954 64.2018 72.0656 64.0864 72.4446C64.0328 72.6211 63.9843 72.8229 64.0234 72.9989C64.1192 73.4403 64.0076 73.837 63.8247 74.2185C63.5069 74.8807 63.1766 75.5365 62.834 76.1861C62.3528 77.0954 61.8382 77.9871 61.3691 78.9028C60.9194 79.78 60.5209 80.6812 60.5745 81.6467C59.65 82.2199 58.5476 82.3624 57.8735 83.251C57.7847 83.2276 57.6973 83.1992 57.6118 83.1658C57.0442 82.901 56.9326 82.9136 56.4975 83.3153C56.3713 83.4295 56.2667 83.56 56.1456 83.6767C56.0155 83.8119 55.8566 83.9162 55.6807 83.9817C55.5049 84.0471 55.3165 84.0722 55.1296 84.055C55.1145 83.8211 55.1 83.606 55.0868 83.4011L55.6739 83.3342C55.8221 82.6052 56.261 82.3158 57.1167 82.3252C57.4093 81.856 57.772 81.4291 57.9555 80.9378C58.1133 80.5048 58.3929 80.1265 58.7608 79.8487C58.8634 79.7759 58.9492 79.6819 59.0125 79.5731C59.0758 79.4644 59.1151 79.3433 59.1278 79.2181C59.1499 79.0132 59.2205 78.8126 59.2691 78.6115L59.5093 78.6606C59.7855 78.31 59.9974 77.9619 60.2844 77.6939C60.7983 77.214 60.9283 76.6439 60.8583 75.978C60.7978 75.4781 60.7694 74.9749 60.7731 74.4714C60.7882 73.8408 60.7851 73.2177 60.5984 72.6066C60.5501 72.426 60.5141 72.2422 60.4906 72.0567C60.3992 71.5011 60.3594 70.9329 60.2125 70.3931C59.9829 69.5506 59.7433 68.7144 59.5667 67.858C59.4866 67.4664 59.2653 67.0886 59.0452 66.7449C58.803 66.3666 58.4228 66.0695 58.221 65.6729C57.9687 65.1804 57.6061 64.785 57.2479 64.394C56.9242 64.0382 56.5399 63.7429 56.1128 63.5218C55.6039 63.2658 55.0016 63.2191 54.5791 62.7524C54.4441 62.6036 54.1604 62.5721 53.9365 62.5261C53.5739 62.4523 53.2586 62.5166 52.9937 62.8332C52.5037 63.419 52.2464 63.4096 51.7854 62.8874C51.2513 62.8458 50.7455 62.8395 50.253 62.7569C49.9432 62.6988 49.623 62.7635 49.36 62.9372C49.1496 63.0733 48.9203 63.1778 48.6796 63.2475C48.1536 63.385 47.6195 63.4997 47.0835 63.5937C46.7335 63.6568 46.5159 63.8327 46.4207 64.1726C46.3885 64.2849 46.3425 64.4495 46.2599 64.4823C45.4823 64.79 45.3007 65.5543 44.94 66.1774C44.8745 66.2857 44.8497 66.4138 44.87 66.5387C44.8977 66.6503 45.0182 66.7393 45.073 66.8067C44.771 67.4544 44.1302 67.8309 43.871 68.5479L44.2494 68.522C44.0905 69.0581 43.9082 69.5872 43.7815 70.1295C43.6888 70.523 43.7128 70.9455 43.6074 71.334C43.4548 71.8953 43.4416 72.454 43.4908 73.021C43.5816 74.0665 43.6787 75.1117 43.7821 76.1564C43.7985 76.3172 43.8225 76.5569 43.9253 76.6161C44.3037 76.8344 44.3478 77.2228 44.4897 77.5621C44.6915 78.0464 44.8813 78.5364 45.097 79.0125C45.1991 79.2377 45.4123 79.4269 45.4659 79.657C45.5904 80.2279 45.6783 80.8061 45.7289 81.3881C45.7503 81.6271 45.6481 81.8775 45.599 82.1222C45.5498 82.3668 45.4987 82.5932 45.4514 82.8158C46.4982 83.2415 46.4982 83.2415 46.3431 83.8343C46.0044 83.8545 45.7018 83.8192 45.4312 83.5448C45.184 83.2926 44.8712 83.1085 44.5906 82.8909C44.3718 82.7213 44.1491 82.6557 43.8969 82.8278C43.7777 82.8957 43.654 82.9553 43.5267 83.0063C43.1483 82.633 42.6716 82.6008 42.181 82.6317C41.7919 82.6557 41.5043 82.5403 41.3031 82.1732C40.9578 81.5478 40.5222 80.9766 40.0103 80.4781C39.9025 80.3728 39.842 80.1962 39.8104 80.0417C39.6805 79.4111 39.613 78.7584 39.4403 78.1378C39.2725 77.5362 39.0795 76.9182 38.7636 76.3866C38.1853 75.4135 37.4979 74.5061 36.8787 73.5564C36.6673 73.2458 36.5028 72.9058 36.3905 72.5473C36.2102 71.9262 36.1011 71.2861 35.9548 70.6132H35.9579ZM45.0598 19.948L44.9652 20.0293C44.4563 19.6617 43.9562 19.2764 43.4372 18.9295C42.239 18.1349 41.3302 17.0818 40.5659 15.8842C39.8722 14.8027 39.2662 13.6739 38.8437 12.4637C38.5354 11.574 38.2893 10.6639 38.1071 9.74003C38.0201 9.30616 38.0895 8.81994 38.1847 8.3785C38.2799 7.93706 38.5927 7.74157 39.0341 7.81094C39.3986 7.86643 39.7486 8.02598 40.0986 8.15778C40.3509 8.25238 40.4285 8.45481 40.3944 8.71653C40.3515 8.96414 40.3304 9.21503 40.3313 9.46633C40.3458 9.79237 40.5508 9.94182 40.8409 9.80876C41.0836 9.68976 41.3008 9.52461 41.4803 9.32255C42.1526 8.59291 42.1425 8.59165 42.9938 8.99084C43.2839 9.12705 43.4094 9.33895 43.3577 9.64418C43.3141 9.89158 43.2562 10.1362 43.1843 10.377C43.0582 10.8184 42.8967 11.2542 42.7845 11.7013C42.3752 13.3371 42.3985 14.944 43.1818 16.4814C43.6106 17.3214 44.0508 18.1551 44.4954 18.9869C44.6669 19.3129 44.8674 19.627 45.0566 19.948H45.0598ZM59.4261 8.19878C59.7386 7.85809 60.1522 7.62664 60.606 7.5385C61.6926 7.32031 62.4064 7.85382 62.3718 8.96373C62.3426 9.61166 62.2287 10.253 62.0331 10.8714C61.5519 12.4391 60.8267 13.9072 60.0718 15.3608C59.295 16.8581 58.1646 18.1433 56.7787 19.1048C56.3234 19.4258 55.8561 19.7311 55.3913 20.0432C55.3783 19.9875 55.3772 19.9296 55.388 19.8735C55.3989 19.8173 55.4215 19.764 55.4544 19.7172C56.1803 18.5366 56.8506 17.3284 57.3513 16.0312C57.9731 14.4205 58.2134 12.8017 57.6231 11.1179C57.4806 10.7112 57.4623 10.2559 57.4264 9.81949C57.3993 9.49093 57.5424 9.20653 57.7978 8.9877C58.1251 8.70833 58.3793 8.71148 58.6769 9.01355C58.7942 9.13274 58.8812 9.28093 58.9979 9.40075C59.2546 9.66624 59.4311 9.65741 59.6809 9.38309C59.9306 9.10876 59.9369 8.9366 59.7048 8.6112C59.6229 8.49516 59.5434 8.37599 59.4229 8.19878H59.4261ZM54.9562 42.2142H56.3234C55.8378 42.8492 55.5433 42.8448 54.9562 42.2142ZM56.4067 64.2817L56.5025 64.1871L57.2277 64.959C56.6848 64.8896 56.6248 64.5037 56.4054 64.2792L56.4067 64.2817ZM53.7454 63.1277C53.758 63.1592 53.77 63.1907 53.782 63.2223L53.3809 63.3824L53.3412 63.2765L53.7454 63.1277Z" fill="url(#paint0_linear_1379_38557)"/>
</g>
</g>
<defs>
<linearGradient id="paint0_linear_1379_38557" x1="50.8849" y1="6" x2="50.8849" y2="184.597" gradientUnits="userSpaceOnUse">
<stop stop-color="#376752"/>
<stop offset="1" stop-color="#91BFB2"/>
</linearGradient>
</defs>
</svg>
