<svg width="287" height="146" viewBox="0 0 287 146" fill="none" xmlns="http://www.w3.org/2000/svg">
<rect x="0.5" width="286" height="146" rx="32" fill="#EDEDED"/>
<g clip-path="url(#clip0_1379_21300)">
<path d="M114.872 85.2972H114.781L109.193 62.4667H102.62L97.0543 85.2972H96.9624L91.7869 62.4667H84.8702L93.5728 94.4303H100.1L105.848 72.582H105.963L111.711 94.4303H118.284L126.964 62.4667H120.047L114.872 85.2972ZM197.48 61.9513C189.235 61.9513 184.311 67.4073 184.311 76.5632V80.4281C184.311 89.6776 189.211 94.9701 197.456 94.9701C205.723 94.9701 209.847 89.8182 209.847 84.0566V83.472H203.64C203.64 86.7736 202.037 89.3491 197.571 89.3491C193.082 89.3491 190.883 86.5158 190.883 80.4281V76.5632C190.883 70.5462 193.105 67.5251 197.525 67.5251C201.67 67.5251 203.64 70.3349 203.64 73.4966H209.846V73.1681C209.847 66.939 205.22 61.9513 197.48 61.9513ZM137.431 62.4667L127.354 94.4303H133.835L136.099 86.3752H145.989L148.217 94.4303H155.156L145.103 62.4667H137.431ZM137.482 81.4582L141.05 68.7658H141.118L144.628 81.4582H137.482ZM236.001 62.4667V75.2998H223.221V62.4667H216.741V94.4303H223.221V80.8021H236.001V94.4311H242.505V62.4667H236.001ZM155.042 67.9926H164.34V94.4303H170.798V67.9926H180.119V62.4667H155.042V67.9926ZM72.7192 74.5581C72.6681 69.0431 77.1231 66.3898 77.3266 66.2617C74.7974 62.4541 70.8908 62.0338 69.515 61.9285C66.0029 61.6645 63.0258 63.9352 61.3632 63.9352C59.6771 63.9352 57.0772 61.9859 54.3201 62.0385C50.7011 62.0943 47.365 64.1898 45.4997 67.5055C41.74 74.1801 44.5395 84.0652 48.201 89.4772C49.9924 92.1251 52.1279 95.1053 54.9345 94.9961C57.6358 94.8876 58.6564 93.2086 61.9219 93.2086C65.1849 93.2086 66.1058 94.9961 68.9619 94.9403C71.8682 94.8884 73.7107 92.2437 75.488 89.5801C77.5466 86.5111 78.392 83.5396 78.4423 83.3785C78.3771 83.3565 72.7742 81.1581 72.7192 74.5581ZM67.3472 58.3543C68.8385 56.5134 69.8427 53.9449 69.5661 51.396C67.4195 51.4816 64.8251 52.8582 63.2851 54.6968C61.9069 56.3287 60.6954 58.9404 61.0238 61.4429C63.4171 61.6307 65.8575 60.1976 67.3472 58.3543Z" fill="#293133"/>
</g>
<defs>
<clipPath id="clip0_1379_21300">
<rect width="199.571" height="44" fill="white" transform="translate(43.7144 51)"/>
</clipPath>
</defs>
</svg>
