<svg width="287" height="146" viewBox="0 0 287 146" fill="none" xmlns="http://www.w3.org/2000/svg">
<rect x="0.5" width="286" height="146" rx="32" fill="#293133"/>
<g clip-path="url(#clip0_1358_6176)">
<path d="M114.872 85.2972H114.781L109.193 62.4667H102.619L97.0541 85.2972H96.9622L91.7867 62.4667H84.87L93.5726 94.4303H100.1L105.848 72.582H105.963L111.711 94.4303H118.284L126.964 62.4667H120.047L114.872 85.2972ZM197.479 61.9513C189.235 61.9513 184.311 67.4073 184.311 76.5632V80.4281C184.311 89.6776 189.211 94.9701 197.456 94.9701C205.723 94.9701 209.846 89.8182 209.846 84.0566V83.472H203.64C203.64 86.7736 202.036 89.3491 197.57 89.3491C193.082 89.3491 190.883 86.5158 190.883 80.4281V76.5632C190.883 70.5462 193.104 67.5251 197.525 67.5251C201.67 67.5251 203.639 70.3349 203.639 73.4966H209.846V73.1681C209.846 66.939 205.22 61.9513 197.479 61.9513ZM137.43 62.4667L127.354 94.4303H133.835L136.099 86.3752H145.988L148.217 94.4303H155.156L145.103 62.4667H137.43ZM137.481 81.4582L141.049 68.7658H141.118L144.628 81.4582H137.481ZM236.001 62.4667V75.2998H223.221V62.4667H216.74V94.4303H223.221V80.8021H236.001V94.4311H242.505V62.4667H236.001ZM155.042 67.9926H164.339V94.4303H170.798V67.9926H180.119V62.4667H155.042V67.9926ZM72.7189 74.5581C72.6679 69.0431 77.1229 66.3898 77.3264 66.2617C74.7972 62.4541 70.8906 62.0338 69.5148 61.9285C66.0027 61.6645 63.0256 63.9352 61.363 63.9352C59.6769 63.9352 57.0769 61.9859 54.3199 62.0385C50.7009 62.0943 47.3647 64.1898 45.4995 67.5055C41.7398 74.1801 44.5393 84.0652 48.2007 89.4772C49.9922 92.1251 52.1277 95.1053 54.9343 94.9961C57.6356 94.8876 58.6562 93.2086 61.9217 93.2086C65.1847 93.2086 66.1056 94.9961 68.9617 94.9403C71.868 94.8884 73.7105 92.2437 75.4878 89.5801C77.5464 86.5111 78.3918 83.5396 78.4421 83.3785C78.3769 83.3565 72.7739 81.1581 72.7189 74.5581ZM67.347 58.3543C68.8383 56.5134 69.8424 53.9449 69.5659 51.396C67.4193 51.4816 64.8249 52.8582 63.2849 54.6968C61.9067 56.3287 60.6952 58.9404 61.0236 61.4429C63.4169 61.6307 65.8573 60.1976 67.347 58.3543Z" fill="white"/>
</g>
<defs>
<clipPath id="clip0_1358_6176">
<rect width="199.571" height="44" fill="white" transform="translate(43.7143 51)"/>
</clipPath>
</defs>
</svg>
