<svg width="286" height="146" viewBox="0 0 286 146" fill="none" xmlns="http://www.w3.org/2000/svg">
<rect width="286" height="146" rx="32" fill="white"/>
<g clip-path="url(#clip0_1358_6165)">
<path d="M244.5 79.2018C244.38 79.5398 244.302 79.9005 244.133 80.2117C243.552 81.2773 242.655 81.873 241.419 81.873C233.576 81.8771 225.736 81.875 217.894 81.873C217.75 81.873 217.605 81.8585 217.438 81.8503V78.9401H239.906C239.906 77.9837 239.91 77.0707 239.896 76.1597C239.896 76.0979 239.745 76.0072 239.652 75.9886C239.51 75.9598 239.358 75.9783 239.209 75.9783C233.049 75.9783 226.886 75.9783 220.726 75.9783C218.675 75.9783 217.411 74.7087 217.411 72.6476C217.411 72.0561 217.411 71.4625 217.411 70.871C217.411 68.8986 218.708 67.5857 220.682 67.5754C222.725 67.5651 224.767 67.5733 226.81 67.5733C232.544 67.5733 238.276 67.5733 244.009 67.5733C244.172 67.5733 244.337 67.5568 244.5 67.5486V70.5124C244.255 70.5248 244.007 70.5474 243.762 70.5474C236.746 70.5474 229.728 70.5474 222.713 70.5474H222.063V73.0434C222.309 73.0434 222.519 73.0434 222.731 73.0434C228.908 73.0434 235.083 73.0434 241.26 73.0434C242.892 73.0434 243.999 73.9028 244.411 75.4795C244.428 75.5393 244.471 75.5908 244.502 75.6465V79.2018H244.5Z" fill="#293133"/>
<path d="M65.3877 96.1004C66.3646 95.3749 67.2859 94.6927 68.2072 94.0084C71.5544 91.529 74.8995 89.0454 78.2528 86.5762C78.5599 86.3516 78.6939 86.1187 78.6918 85.725C78.6733 80.3271 78.6671 74.9292 78.6753 69.5313C78.6753 69.1417 78.5434 68.9047 78.2384 68.6759C74.1163 65.5843 70.0003 62.4804 65.8865 59.3805C65.7834 59.3043 65.6886 59.2177 65.5505 59.1023C66.3976 58.6159 67.1994 58.1357 68.0238 57.6967C68.1433 57.6328 68.3927 57.7338 68.5432 57.8203C72.0222 59.8237 75.4972 61.8353 78.9721 63.8448C80.9095 64.966 82.8428 66.0913 84.7864 67.2023C85.0584 67.3589 85.178 67.5238 85.1759 67.8536C85.1677 74.3706 85.1697 80.8877 85.1821 87.4048C85.1821 87.7181 85.0997 87.9015 84.8152 88.0643C79.4647 91.1374 74.1163 94.2166 68.7781 97.3102C68.3742 97.5431 68.065 97.5761 67.6569 97.3288C66.9438 96.898 66.1936 96.5291 65.3897 96.0963L65.3877 96.1004Z" fill="#F8283B"/>
<path d="M44.2309 63.4923C44.402 64.968 44.5648 66.3531 44.7256 67.7402C44.9791 69.9269 45.2326 72.1117 45.4861 74.2984C45.6901 76.0607 45.888 77.8229 46.1106 79.583C46.1333 79.7582 46.2734 79.9829 46.4259 80.0694C51.2117 82.8354 56.0078 85.5828 60.7936 88.3466C61.0698 88.5053 61.2717 88.4435 61.5232 88.3363C66.2451 86.333 70.967 84.3358 75.6909 82.3366C75.8373 82.2748 75.9877 82.2232 76.2144 82.1367C76.2144 83.1507 76.2309 84.0823 76.1959 85.0139C76.1918 85.1458 75.9527 85.2963 75.7919 85.389C71.4864 87.8685 67.1787 90.3438 62.8711 92.8171C61.7726 93.4478 60.6699 94.0723 59.5796 94.7153C59.322 94.8678 59.1282 94.874 58.8644 94.7215C53.2212 91.4671 47.5719 88.2209 41.9184 84.985C41.6051 84.8099 41.5 84.612 41.5 84.2554C41.5124 78.0516 41.5124 71.8478 41.5 65.6461C41.5 65.2854 41.6113 65.0834 41.9205 64.9041C42.6727 64.4713 43.4065 64.0014 44.2309 63.4923Z" fill="#F8283B"/>
<path d="M50.7603 79.7541C49.9194 79.2698 49.1197 78.8205 48.3386 78.3444C48.2335 78.2805 48.1758 78.0641 48.1758 77.9177C48.1799 73.5751 48.1943 69.2303 48.2046 64.8877C48.2088 62.9627 48.217 61.0376 48.1984 59.1126C48.1943 58.754 48.3097 58.5602 48.623 58.3809C54.2559 55.1348 59.8805 51.8803 65.501 48.6177C65.7772 48.4569 65.973 48.4549 66.2513 48.6177C71.6327 51.734 77.0224 54.838 82.4038 57.9563C82.5872 58.0635 82.8078 58.2985 82.816 58.484C82.8572 59.4176 82.8346 60.3534 82.8346 61.3344C82.715 61.2932 82.5646 61.2499 82.4244 61.1881C77.6881 59.1373 72.9497 57.0866 68.2175 55.0255C67.8816 54.8792 67.6301 54.8874 67.3065 55.075C62.6568 57.7812 58.0008 60.477 53.3367 63.1585C52.9409 63.3852 52.7658 63.6304 52.7122 64.1024C52.3577 67.1693 51.9537 70.23 51.5745 73.2948C51.3271 75.2837 51.0942 77.2726 50.8531 79.2615C50.8366 79.4058 50.8016 79.546 50.7624 79.7562L50.7603 79.7541Z" fill="#F8283B"/>
<path d="M183.359 81.8749C181.963 81.8749 180.566 81.8172 179.175 81.8935C178.115 81.9532 177.254 81.6729 176.39 81.0587C174.661 79.8303 172.87 78.6865 171.085 77.5343C170.815 77.3591 170.454 77.2478 170.133 77.2458C167.711 77.2231 165.289 77.2334 162.866 77.2334C162.686 77.2334 162.505 77.2334 162.286 77.2334V74.3149H178.806V70.5906H160.918V81.8378H156.353C156.353 81.6296 156.353 81.4359 156.353 81.2442C156.353 77.7878 156.353 74.3335 156.353 70.8771C156.353 68.8696 157.645 67.5773 159.663 67.5753C166.468 67.5712 173.274 67.5856 180.077 67.567C182.209 67.5609 183.528 69.2015 183.406 70.9121C183.328 72.0251 183.398 73.1484 183.39 74.2675C183.379 75.8814 182.054 77.2128 180.432 77.2334C179.23 77.2499 178.027 77.2458 176.825 77.252C176.815 77.252 176.807 77.2726 176.753 77.3365C178.964 78.8184 181.172 80.2941 183.377 81.7719C183.371 81.8069 183.363 81.8419 183.357 81.877L183.359 81.8749Z" fill="#293133"/>
<path d="M200.397 81.875C196.937 81.875 193.476 81.875 190.016 81.875C188.219 81.875 186.875 80.5786 186.86 78.7834C186.84 76.102 186.842 73.4185 186.86 70.735C186.871 68.9151 188.184 67.5836 190.024 67.5795C196.945 67.563 203.866 67.563 210.787 67.5795C212.683 67.5836 213.951 68.9213 213.953 70.8174C213.953 73.4515 213.955 76.0834 213.953 78.7175C213.953 80.5848 212.655 81.875 210.781 81.875C207.321 81.875 203.86 81.875 200.4 81.875H200.397ZM209.382 70.6773C209.217 70.6649 209.087 70.6464 208.959 70.6464C203.277 70.6464 197.594 70.6505 191.91 70.6361C191.492 70.6361 191.426 70.7927 191.428 71.1534C191.44 73.538 191.434 75.9247 191.434 78.3094C191.434 78.4701 191.448 78.6289 191.454 78.7979H209.38V70.6773H209.382Z" fill="#293133"/>
<path d="M139.347 81.875C135.886 81.875 132.426 81.875 128.965 81.875C127.203 81.875 125.872 80.7022 125.83 78.9421C125.766 76.1452 125.764 73.3463 125.83 70.5515C125.872 68.7439 127.224 67.5794 129.101 67.5774C133.419 67.5712 137.737 67.5753 142.053 67.5753C144.524 67.5753 146.997 67.5753 149.469 67.5753C151.643 67.5753 152.904 68.8367 152.904 71.007C152.904 73.5586 152.904 76.1081 152.904 78.6597C152.904 80.5806 151.604 81.877 149.679 81.877C146.235 81.877 142.791 81.877 139.347 81.877V81.875ZM148.345 78.8102V78.266C148.345 75.8814 148.333 73.4947 148.356 71.11C148.36 70.6525 148.226 70.535 147.777 70.535C142.16 70.5494 136.544 70.5453 130.925 70.5453C130.752 70.5453 130.577 70.5618 130.41 70.57V78.8081H148.345V78.8102Z" fill="#293133"/>
<path d="M100.255 78.9318H122.337V81.875C122.153 81.875 121.98 81.875 121.805 81.875C114.027 81.875 106.248 81.875 98.4698 81.875C96.6128 81.875 95.2916 80.5662 95.2875 78.7112C95.2813 76.0937 95.2854 73.4782 95.2875 70.8606C95.2875 68.8965 96.5963 67.5794 98.5708 67.5733C101.734 67.565 104.898 67.5712 108.064 67.5712C112.613 67.5712 117.162 67.5712 121.708 67.5712H122.331V70.535H100.255V78.9318Z" fill="#293133"/>
</g>
<defs>
<clipPath id="clip0_1358_6165">
<rect width="203" height="49.0079" fill="white" transform="translate(41.5 48.4961)"/>
</clipPath>
</defs>
</svg>
