<svg width="286" height="146" viewBox="0 0 286 146" fill="none" xmlns="http://www.w3.org/2000/svg">
<rect width="286" height="146" rx="32" fill="#1E1E1E"/>
<g clip-path="url(#clip0_1379_21283)">
<path d="M143.53 46.0055L133.862 59.4017H153.298L143.53 46.0055Z" fill="#ED1A3A"/>
<path d="M66.9098 70.4219C73.2501 70.4219 77.2772 72.601 78.6692 73.5853L75.1407 77.8158C73.9045 76.8281 71.1794 75.3603 66.7124 75.3603C61.9789 75.3603 60.2857 76.9489 60.2857 78.4651C60.2857 80.2229 61.3417 81.0069 68.3226 81.9809C77.3015 83.2378 80.3072 86.4877 80.3072 90.6215C80.3072 96.862 73.8734 99.9943 66.3386 99.9943C60.0988 99.9943 55.5173 97.9707 53 95.3771L57.1621 91.8925C58.4606 93.1564 61.65 95.0627 66.3523 95.0627C71.0237 95.0627 74.3063 93.4534 74.3063 91.3192C74.3063 89.2195 72.3256 88.6496 65.5419 87.5998C57.7023 86.3771 54.3124 83.2482 54.3124 79.0797C54.3124 74.7007 58.3015 70.4219 66.9098 70.4219ZM191.683 99.2796H185.695L185.689 76.4724H176.166V71.2715H201.209V76.469L191.679 76.4724L191.683 99.2796ZM172.087 99.2796H166.844L152.484 80.513L152.491 99.2796H146.948L146.944 71.2715H152.457L166.533 89.3646V71.2715H172.08L172.087 99.2796ZM128.554 94.852C133.228 94.852 135.008 92.1479 135.008 88.5218V71.2678H140.995V88.7082C140.995 97.159 134.17 99.9909 128.554 99.9909C122.663 99.9909 115.96 97.159 115.96 88.7082V71.2681H121.947L121.943 88.522C121.943 92.0861 123.879 94.852 128.554 94.852ZM97.4858 94.852C102.157 94.852 103.944 92.1479 103.944 88.5218L103.94 71.2678H109.927L109.921 88.7082C109.921 97.159 103.106 99.9909 97.4858 99.9909C91.592 99.9909 84.8952 97.159 84.8952 88.7082L84.8884 71.2678H90.8756V88.5218C90.8756 92.0859 92.811 94.852 97.4858 94.852ZM208.082 85.2063C208.082 91.5194 212.154 95.1283 217.442 95.1283C222.73 95.1283 226.798 91.5194 226.798 85.2065C226.798 78.8933 222.73 75.2845 217.442 75.2845C212.154 75.2845 208.082 78.8933 208.082 85.2063ZM201.88 85.2063C201.88 76.3066 208.848 70.4219 217.442 70.4219C226.033 70.4219 233 76.3068 233 85.2065C233 93.8332 226.033 99.9943 217.442 99.9943C208.848 99.9943 201.88 94.1166 201.88 85.2065" fill="white"/>
</g>
<defs>
<clipPath id="clip0_1379_21283">
<rect width="180" height="54" fill="white" transform="translate(53 46)"/>
</clipPath>
</defs>
</svg>
