<svg width="286" height="146" viewBox="0 0 286 146" fill="none" xmlns="http://www.w3.org/2000/svg">
<rect width="286" height="146" rx="32" fill="#293133"/>
<g clip-path="url(#clip0_1358_6147)">
<path d="M96.4547 73.2884C96.1463 72.6692 95.3249 72.1636 94.6295 72.1636H93.2172C92.5234 72.1636 91.7116 72.675 91.4115 73.2988L80.2117 96.6295C79.9004 97.2465 80.2387 97.6885 80.9339 97.6885H83.5221C84.5439 97.6885 85.0121 97.2252 85.2887 96.6576C85.566 96.09 86.1832 94.8557 86.3014 94.6041C86.4609 94.2635 86.9533 94.0548 87.6471 94.0555L99.6976 94.0618C100.392 94.0632 100.838 94.1948 101.044 94.6041C101.178 94.8706 101.794 95.9806 102.097 96.5863C102.402 97.192 102.915 97.6885 103.91 97.6885H107.665C108.36 97.6885 108.664 97.1629 108.414 96.6748C108.163 96.1856 96.4545 73.2884 96.4545 73.2884H96.4547ZM89.379 90.4522C88.6852 90.4522 88.3584 89.9368 88.6503 89.3108L93.0636 79.8833C93.3574 79.2553 93.8323 79.2597 94.1187 79.8874L98.4155 89.3147C98.7019 89.9436 98.3689 90.4587 97.6759 90.4587L89.379 90.4522ZM182.997 73.4687V96.6144C182.997 97.2516 183.565 97.6885 184.26 97.6885H187.321C188.014 97.6885 188.582 97.2465 188.582 96.554V73.4221C188.582 72.7289 188.134 72.1643 187.44 72.1643H184.26C183.565 72.1636 182.997 72.5896 182.997 73.4687ZM131.709 87.9664C131.311 87.3998 131.53 86.7742 132.194 86.5764C132.194 86.5764 134.838 85.7871 136.104 84.6554C137.371 83.5202 138.007 81.8818 138.007 79.7461C138.007 78.3495 137.762 77.1756 137.275 76.2203C136.787 75.2676 136.088 74.4878 135.179 73.8912C134.269 73.2914 133.18 72.8512 131.912 72.5757C130.643 72.3013 128.93 72.2212 128.93 72.2212C128.09 72.1863 127.249 72.1672 126.408 72.1639H113.698C113.005 72.1639 112.437 72.7284 112.437 73.4216V96.5543C112.437 97.2472 113.004 97.6887 113.698 97.6887H116.706C117.4 97.6887 117.968 97.2467 117.968 96.5543C117.968 96.5543 117.97 87.3533 117.975 87.3533C117.98 87.3533 117.984 87.3485 117.984 87.342C117.984 87.3343 123.685 87.3278 123.685 87.3278C124.379 87.3278 125.274 87.7902 125.675 88.3567L131.594 96.6666C132.144 97.4025 132.667 97.6885 133.361 97.6885H137.293C137.987 97.6885 138.096 97.0357 137.856 96.6968C137.618 96.3597 131.709 87.9664 131.709 87.9664ZM129.316 83.2681C128.537 83.4469 127.661 83.4826 127.661 83.4826C126.82 83.5161 125.979 83.5344 125.138 83.5374H119.247C118.552 83.5374 117.985 82.9708 117.985 82.279V77.592C117.985 76.8998 118.552 76.3338 119.247 76.3338H125.138C125.833 76.3338 126.967 76.3587 127.66 76.3877C127.66 76.3877 128.537 76.422 129.316 76.6015C130.095 76.7807 130.713 77.0307 131.165 77.3534C131.619 77.6784 131.943 78.0593 132.139 78.4976C132.332 78.9359 132.43 79.4127 132.43 79.9339C132.43 80.4522 132.332 80.9323 132.139 81.3697C131.943 81.808 131.619 82.1887 131.165 82.5137C130.713 82.8387 130.095 83.0919 129.316 83.2681ZM220.574 72.1636C219.88 72.1636 219.319 72.6196 219.319 73.2865L219.327 88.0832C219.327 88.7768 218.934 88.9342 218.452 88.4358L203.593 73.0681C203.111 72.5697 202.405 72.1636 201.453 72.1636H198.659C197.781 72.1636 197.396 72.6312 197.396 73.1047V96.7662C197.396 97.2384 197.847 97.6887 198.542 97.6887H201.341C202.033 97.6887 202.519 97.3124 202.519 96.675C202.519 96.3553 202.533 81.0872 202.533 81.0872C202.533 80.3954 202.926 80.2375 203.406 80.7371L218.9 96.7973C219.392 97.2885 219.99 97.689 221.053 97.689H223.156C223.851 97.689 224.419 97.123 224.419 96.4305V73.4225C224.419 72.7294 223.851 72.1648 223.156 72.1648H220.574V72.1636ZM159.992 86.5917C159.655 87.1962 159.101 87.1943 158.768 86.5884L151.505 73.2884C151.197 72.6711 150.563 72.1636 149.681 72.1636H145.741C145.047 72.1636 144.478 72.7282 144.478 73.4214V96.5246C144.478 97.2156 144.934 97.6885 145.741 97.6885H148.19C148.885 97.6885 149.386 97.2516 149.386 96.5842C149.386 96.2643 149.396 79.7809 149.422 79.7809C149.449 79.7809 158.488 96.5796 158.488 96.5796C158.815 97.1892 159.619 97.192 159.952 96.5847C159.952 96.5847 169.065 79.8287 169.092 79.8287C169.121 79.8287 169.11 96.1028 169.11 96.584C169.11 97.2521 169.646 97.6883 170.34 97.6883H173.161C173.856 97.6883 174.422 97.3433 174.422 96.4298V73.4218C174.422 73.0884 174.289 72.7689 174.052 72.5331C173.816 72.2973 173.495 72.1647 173.161 72.1641H169.385C168.421 72.1641 167.841 72.6542 167.496 73.2559L159.992 86.5917H159.992ZM48.0115 84.9036C48.0115 97.3679 60.7977 98 63.3612 98C71.8462 98 75.4318 95.7139 75.5805 95.6153C76.1111 95.3158 76.7574 94.712 76.7574 93.5808V84.9774C76.7569 84.5961 76.6047 84.2305 76.3342 83.9609C76.0637 83.6913 75.6971 83.5397 75.3147 83.5393H64.655C63.8581 83.5393 63.3349 84.1848 63.3349 84.9774V85.8683C63.3349 86.6623 63.8581 87.3097 64.655 87.3097H70.8204C71.1065 87.3098 71.3808 87.423 71.5831 87.6247C71.7855 87.8263 71.8993 88.0998 71.8995 88.385C71.8995 88.385 71.8937 92.1561 71.8937 92.395C70.6756 92.8908 65.1276 94.507 60.6701 93.4471C54.2037 91.9047 53.6997 86.5854 53.6997 84.992C53.6997 83.6546 54.102 76.9553 62.0435 76.2776C68.4715 75.7291 72.705 78.3168 72.747 78.3423C73.5024 78.7328 74.2845 78.4544 74.7059 77.6568C74.7077 77.6505 75.5079 76.0365 75.5079 76.0365C75.8408 75.3723 75.7286 74.6835 74.9159 74.1338C74.8616 74.103 70.3552 71.6666 63.3629 71.6666C48.4415 71.6673 48.0115 83.5488 48.0115 84.9036ZM228.428 94.511H227.329V94.1159H230.003V94.511H228.899V97.7154H228.428L228.428 94.511ZM233.715 96.1348C233.688 95.6324 233.656 95.0235 233.656 94.5804H233.645C233.505 95.0401 233.354 95.4961 233.19 95.9479L232.553 97.6939H232.199L231.609 95.9802C231.438 95.4676 231.3 95.0077 231.197 94.5806H231.186C231.171 95.1114 231.148 95.642 231.117 96.1722L231.021 97.715H230.576L230.828 94.1154H231.423L232.039 95.8565C232.175 96.2561 232.296 96.6605 232.403 97.0689H232.414C232.51 96.7059 232.639 96.3108 232.8 95.8565L233.443 94.1154H234.037L234.263 97.715H233.802L233.715 96.1348Z" fill="white"/>
<path d="M219.161 65.7848L202.417 65.7841C201.804 65.7841 201.277 65.4795 200.97 64.9498C200.664 64.4198 200.664 63.8135 200.971 63.2835L209.343 48.8325C209.65 48.3032 210.176 48 210.79 48C211.404 48 211.93 48.3032 212.237 48.8325L220.608 63.2842C220.916 63.8142 220.916 64.421 220.609 64.951C220.302 65.4802 219.775 65.7848 219.161 65.7848Z" fill="#007CC2"/>
</g>
<defs>
<clipPath id="clip0_1358_6147">
<rect width="186.275" height="50" fill="white" transform="translate(48 48)"/>
</clipPath>
</defs>
</svg>
