<svg width="287" height="146" viewBox="0 0 287 146" fill="none" xmlns="http://www.w3.org/2000/svg">
<rect x="0.5" width="286" height="146" rx="32" fill="#1E1E1E"/>
<path d="M232.736 83.9065V82.4635H233.878C234.364 82.4635 234.874 82.5642 234.874 83.1866C234.874 83.809 234.364 83.9065 233.878 83.9065H232.736ZM235.402 83.1248C235.362 82.265 234.682 82.1101 233.989 82.1101H232.247V86.1723H232.736V84.2999H233.632L234.771 86.1723H235.355L234.151 84.2936C234.909 84.2617 235.44 83.9907 235.402 83.1248ZM233.576 87.3053C231.874 87.3053 230.581 85.8418 230.581 84.1479C230.581 82.4501 231.874 80.9855 233.576 80.9855C235.276 80.9855 236.569 82.4501 236.569 84.1479C236.569 85.8415 235.276 87.3053 233.576 87.3053ZM233.576 80.5059C231.605 80.5059 230.007 82.1348 230.007 84.1482C230.007 86.1573 231.605 87.7852 233.576 87.7852C234.045 87.7853 234.509 87.6912 234.942 87.5085C235.375 87.3257 235.768 87.0578 236.099 86.7201C236.43 86.3823 236.693 85.9814 236.872 85.5401C237.052 85.0988 237.144 84.6258 237.144 84.1482C237.144 82.1351 235.548 80.5059 233.576 80.5059Z" fill="white"/>
<path d="M121.302 70.749C122.023 80.1338 114.468 88.4073 105.318 88.6949C95.6469 89 88.6489 80.3949 90.559 70.749H121.302M120.342 66.4588C118.084 60.5416 112.489 57 106.359 57.1632C100.306 57.3223 94.7836 61.0109 92.0392 66.4588H120.342Z" fill="#E71933"/>
<path d="M59.5762 70.7491H76.1008C77.2423 70.7491 78.2337 69.804 78.3395 68.6434C78.4483 67.4325 77.5536 66.4586 76.3608 66.4586H56.582L59.0936 59.0057C59.3092 58.3699 59.9117 57.9169 60.5776 57.9169H77.99C83.919 57.9169 88.3711 62.8902 87.822 68.9103C87.2982 74.6756 82.3704 79.2577 76.6963 79.2595L65.8185 79.2637C64.8069 79.2648 63.9354 79.9129 63.6262 80.8301L61.6506 86.6942C61.436 87.3311 60.8356 87.7849 60.1707 87.7849H52.1521C50.7325 87.7849 49.8561 86.4087 50.3124 85.0548L53.6733 75.0866C54.5306 72.5413 56.9163 70.7491 59.5762 70.7491ZM212.923 87.7849L211.069 80.7151C210.835 79.8217 210.097 79.2629 209.199 79.2629L206.63 79.264C205.619 79.265 204.747 79.9132 204.438 80.8303L202.463 86.6942C202.248 87.3311 201.647 87.7849 200.982 87.7849H192.964C191.544 87.7849 190.668 86.4087 191.125 85.0548L194.485 75.0866C195.342 72.5413 197.728 70.7491 200.388 70.7491H216.913C218.054 70.7491 219.046 69.804 219.151 68.6434C219.261 67.4325 218.365 66.4586 217.173 66.4586H197.394L199.906 59.0057C200.121 58.3699 200.724 57.9169 201.389 57.9169H218.803C224.731 57.9169 229.183 62.8902 228.634 68.9103C228.264 72.9767 225.704 76.4526 222.238 78.1504L224.77 87.7849H212.923ZM140.196 66.4589L142.434 59.8174C142.752 58.8766 142.132 57.9171 141.144 57.9171H132.35C131.686 57.9171 131.082 58.3702 130.867 59.006L128.355 66.4589H140.196ZM147.506 87.7849H123.925C122.505 87.7849 121.63 86.4087 122.086 85.0548L126.908 70.7491H138.749L137.097 75.6506C136.64 77.0042 137.536 78.3807 138.953 78.3807H149C150.421 78.3807 151.325 79.7541 150.87 81.1056L148.985 86.6942C148.77 87.3311 148.171 87.7849 147.506 87.7849M174.739 58.4893L168.224 66.4589H185.773L185.116 59.1674C185.05 58.433 184.459 57.9174 183.739 57.9174H175.937C175.472 57.9174 175.034 58.128 174.739 58.4896M177.11 87.7849H185.982C186.873 87.7849 187.62 86.9572 187.539 86.045L186.16 70.7491H164.717L153.622 84.3204C152.498 85.6966 153.284 87.7849 155.088 87.7849H162.135C162.601 87.7849 163.041 87.5506 163.334 87.1891L169.158 80.068C169.583 79.5482 170.217 79.2619 170.884 79.2619H173.264C174.298 79.2619 175.147 79.9921 175.243 81.0501L175.735 86.5083C175.764 86.8586 175.922 87.1847 176.177 87.4215C176.431 87.6582 176.765 87.788 177.109 87.7849" fill="white"/>
</svg>
