<svg width="286" height="146" viewBox="0 0 286 146" fill="none" xmlns="http://www.w3.org/2000/svg">
<rect width="286" height="146" rx="32" fill="white"/>
<g clip-path="url(#clip0_1358_6181)">
<path d="M73.4776 89.5798C70.2096 89.5798 67.148 89.1264 64.3186 88.2281C61.4978 87.3298 59.064 85.9867 57 84.1901L62.7362 77.3888C64.482 78.7234 66.3224 79.6987 68.2402 80.2633C70.1752 80.8622 72.0844 81.1445 73.985 81.1445C74.9654 81.1445 75.662 81.0162 76.092 80.7766C76.522 80.52 76.737 80.1949 76.737 79.7757V79.6901C76.737 79.2196 76.4188 78.8346 75.791 78.5352C75.1718 78.2357 73.985 77.9106 72.2822 77.577C70.4762 77.2177 68.7562 76.7814 67.1222 76.2937C65.4882 75.8146 64.0434 75.1816 62.805 74.4287C61.5666 73.6587 60.569 72.7177 59.8466 71.5542C59.1156 70.3907 58.7544 68.9876 58.7544 67.3023V67.2167C58.7544 65.6768 59.0468 64.2738 59.6488 62.9648C60.2508 61.6559 61.1108 60.5095 62.2632 59.5428C63.4156 58.5675 64.8432 57.8061 66.546 57.25C68.2402 56.711 70.1924 56.4373 72.394 56.4373C75.5158 56.4373 78.242 56.7966 80.5898 57.5323C82.9376 58.2595 85.036 59.3546 86.9108 60.8175L81.6648 68.0295C80.193 66.9664 78.5539 66.154 76.8144 65.6255C75.1116 65.1122 73.5206 64.8555 72.0156 64.8555C71.2244 64.8555 70.6396 64.9924 70.2526 65.2319C69.8656 65.4886 69.6764 65.7966 69.6764 66.1901V66.2757C69.6764 66.7034 69.9688 67.0798 70.5536 67.3878C71.1298 67.6873 72.2736 68.0038 73.942 68.3289C75.9888 68.7053 77.855 69.1502 79.532 69.6635C81.2176 70.1768 82.671 70.8441 83.875 71.6483C85.079 72.461 86.025 73.4192 86.6786 74.557C87.3408 75.6692 87.6762 77.038 87.6762 78.6635V78.749C87.6762 80.4258 87.3322 81.9401 86.6614 83.2833C85.9906 84.6179 85.0274 85.7471 83.8234 86.6797C82.5936 87.6207 81.1058 88.3222 79.3514 88.8184C77.6314 89.3317 75.6534 89.5884 73.4862 89.5884L73.4776 89.5798Z" fill="#FC4C02"/>
<path d="M96.517 66.0533H87.057V57.019H116.727V66.0533H107.267V88.981H96.517V66.0533ZM133.626 72.2301C134.899 72.2301 135.914 71.9478 136.636 71.4002C137.376 70.8527 137.754 70.0913 137.754 69.116V69.0304C137.754 68.0038 137.376 67.2339 136.636 66.7206C135.914 66.2244 134.916 65.9677 133.66 65.9677H128.982V72.2301H133.626ZM118.232 57.019H133.936C136.817 57.019 139.182 57.3612 141.031 58.0029C142.888 58.6445 144.385 59.5428 145.503 60.655C146.492 61.6388 147.223 62.7339 147.721 63.9487C148.203 65.1721 148.452 66.6008 148.452 68.2434V68.3289C148.452 70.6816 147.885 72.6578 146.75 74.2662C145.632 75.8917 144.084 77.1749 142.106 78.116L149.588 88.981H137.341L131.287 79.8527H128.982V88.981H118.232V57.019Z" fill="#FC4C02"/>
<path d="M163.571 75.2329L170.572 88.981H180.866L163.58 55.0171L146.294 88.981H156.571L163.571 75.2329ZM187.634 70.7585L180.642 57.019H170.348L187.634 90.9829L204.92 57.019H194.643L187.634 70.7585ZM211.714 75.2329L218.706 88.981H229L211.714 55.0171L194.411 88.981H204.705L211.705 75.2329H211.714Z" fill="#FC4C02"/>
</g>
<defs>
<clipPath id="clip0_1358_6181">
<rect width="172" height="36" fill="white" transform="translate(57 55)"/>
</clipPath>
</defs>
</svg>
